<svg width="139" height="249" viewBox="0 0 139 249" fill="none" xmlns="http://www.w3.org/2000/svg">
<path d="M52.7036 36.8269H37.978L40.9278 20.1125H53.3729L52.7036 36.8269Z" fill="#F3B49C"/>
<path d="M98.2332 85.0983C100.324 94.0463 90.9351 94.0049 86.5682 89.862C82.229 85.7466 71.8149 62.25 70.5455 55.5321C68.7867 46.2254 78.6653 44.4643 81.8274 46.2944C87.7961 49.743 95.7405 74.4444 98.2332 85.0983Z" fill="#F3B49C"/>
<path d="M1.33062 139.154C1.09981 140.331 1.45526 140.888 1.85225 140.961C2.15692 141.017 2.48928 140.782 2.57699 140.322C2.2677 141.334 2.80779 141.863 3.39866 141.821C3.77719 141.794 4.17418 141.536 4.38191 141.026C4.79275 140.023 4.58964 132.758 5.92371 129.599C5.61904 131.751 5.16204 134.041 5.1805 135.2C5.18974 135.899 5.39746 136.349 6.10835 136.483C7.04082 136.662 7.50705 136.184 7.70555 135.37C8.32411 132.813 10.4429 128.119 10.6276 126.583C11.1723 123.213 10.4983 118.38 10.4983 118.38C10.4983 118.38 4.71889 117.571 3.31096 119.686C2.62776 120.711 1.98612 127.783 1.65837 129.167C1.37678 130.358 0.541257 139.895 1.33062 139.154Z" fill="#F3B49C"/>
<path d="M2.41504 131.232C2.42889 134.165 2.44735 137.099 2.4612 140.028" stroke="#EE9575" stroke-width="1.51" stroke-linecap="round" stroke-linejoin="round"/>
<path d="M1.39981 137.375C1.43674 138.083 1.33057 139.154 1.33057 139.154" stroke="#EE9575" stroke-width="1.51" stroke-linecap="round" stroke-linejoin="round"/>
<path d="M6.25579 127.314C6.13577 128.261 6.06191 128.542 5.94189 129.489" stroke="#EE9575" stroke-width="1.51" stroke-linecap="round" stroke-linejoin="round"/>
<path d="M6.75953 85.6501C5.03308 94.6671 14.2146 94.29 18.3369 89.9908C22.4314 85.7191 31.7791 61.8638 32.7762 55.1045C34.1611 45.7426 24.4441 44.3402 21.4159 46.2852C15.7057 49.95 8.81372 74.9226 6.75953 85.6547V85.6501Z" fill="#F3B49C"/>
<path d="M21.5261 84.4913C21.046 95.1315 10.5858 118.734 10.5858 118.734L4.02619 119.079C4.02619 119.079 3.55072 81.1301 10.6365 75.3686C14.0063 72.6281 21.7476 79.5943 21.5261 84.4913Z" fill="#F3B49C"/>
<path d="M46.7628 233.932C46.7628 233.932 42.1835 238.764 40.5771 237.969C39.3584 237.366 38.7491 230.704 38.7491 230.704L38.4121 225.241L46.3796 227.108L46.7674 233.927L46.7628 233.932Z" fill="#F3B49C"/>
<path d="M48.2585 87.0479C34.9686 80.399 31.0171 85.673 29.7015 91.3886C24.1298 115.547 32.3374 157.8 34.0961 170.086C34.0961 170.086 34.0961 170.086 34.0961 170.091C30.9987 191.081 34.6085 213.488 37.3367 227.949C38.2414 232.745 48.3278 230.961 48.0554 226.055C48.0554 226.055 56.8261 108.025 56.9554 105.891C57.8463 91.3104 52.0899 88.9607 48.2585 87.0433V87.0479Z" fill="#A4C0B6"/>
<path d="M38.2827 239.891C40.2155 241.65 60.565 241.705 62.04 240.505C60.4402 239.86 48.7326 233.126 47.6506 231.385C45.6254 231.958 45.9305 235.58 43.8822 235.918C41.8246 236.256 39.0248 232.659 38.5786 233.198C38.1324 233.738 37.4874 239.165 38.2873 239.896L38.2827 239.891Z" fill="#414141"/>
<path d="M73.3938 234.975C73.3938 234.975 68.9623 239.987 67.3282 239.261C66.091 238.709 65.2832 232.074 65.2832 232.074L64.7847 226.63L72.8029 228.175L73.3938 234.971V234.975Z" fill="#F3B49C"/>
<path d="M70.5406 88.1192C57.066 82.0083 53.2715 87.4341 52.1221 93.2048C47.2659 117.575 56.7244 159.469 58.8433 171.677C58.8433 171.677 58.8433 171.677 58.8433 171.682C56.369 192.783 60.639 215.033 63.7918 229.379C64.8397 234.134 74.8614 231.95 74.4505 227.057C74.4505 227.057 79.7222 108.747 79.7914 106.608C80.253 92.0001 74.4274 89.8849 70.5452 88.1238L70.5406 88.1192Z" fill="#A4C0B6"/>
<path d="M53.7239 128.294C53.1007 133.089 53.9363 139.853 54.2594 146.263" stroke="#3E2210" stroke-width="1.39" stroke-linecap="round" stroke-linejoin="round"/>
<path d="M64.5444 241.311C66.4772 243.07 86.8267 243.124 88.3018 241.924C86.7019 241.279 74.9943 234.546 73.9123 232.805C71.8871 233.377 72.1923 236.999 70.1439 237.337C68.0863 237.676 65.2865 234.078 64.8403 234.618C64.3942 235.157 63.7491 240.585 64.549 241.315L64.5444 241.311Z" fill="#414141"/>
<path d="M25.8933 38.9328C26.0041 33.0748 35.8688 29.8607 38.4585 28.5088C38.9063 28.2743 39.4648 28.3663 39.8572 28.6881L43.3286 32.0816C43.6102 32.3161 46.029 33.1713 46.3891 33.107C52.7917 31.9712 52.0485 29.102 52.921 27.6076C53.1979 27.1294 54.3658 27.1937 54.9059 27.3271C57.1032 27.8559 65.3846 28.8951 71.381 33.0058C71.658 33.1943 71.8472 33.4886 71.9026 33.8197C72.8443 39.2731 80.9503 86.7491 80.9457 106.71C80.7057 107.105 80.521 107.413 80.281 107.804C76.1818 109.928 58.4742 114.242 54.075 114.642C45.3043 115.446 32.596 115.718 26.6227 114.747C26.258 114.412 25.981 114.159 25.6163 113.818C22.9667 103.146 25.6671 50.465 25.8887 38.9282L25.8933 38.9328Z" fill="#111111"/>
<path d="M8.13477 66.5769L26.027 71.7452C26.027 71.7452 35.7071 60.1027 33.7683 52.4514C32.4573 47.2646 29.3645 33.723 27.0426 35.5301C20.2476 40.864 8.13477 66.5769 8.13477 66.5769Z" fill="#111111"/>
<path d="M93.4231 66.0573L77.802 76.3066L66.2847 36.4497C66.2847 36.4497 71.1086 32.9137 71.8148 33.3092C82.5059 39.2684 93.4231 66.0573 93.4231 66.0573Z" fill="#111111"/>
<path d="M31.2992 54.9758C38.3481 41.4526 35.92 30.3434 38.4589 28.5134C38.9021 28.1961 39.4699 28.3892 39.8761 28.8674L38.7174 56.461C38.6713 57.5692 39.5945 58.4796 40.707 58.4106C45.8771 58.0979 58.9224 56.8105 59.2132 56.7461C65.5927 55.385 52.1366 29.9802 52.9491 27.8604C53.2076 27.1845 53.7569 27.1569 54.3062 27.3638C56.5912 28.2375 64.6834 49.6373 70.9152 56.1621C71.0444 57.0266 83.7989 114.007 84.4683 143.619V143.633C82.3494 146.281 62.5091 152.498 57.8007 152.921C48.6329 153.74 35.1168 153.551 29.462 151.684L29.4528 151.675C26.0507 139.292 27.9248 61.4408 31.2946 54.9712L31.2992 54.9758Z" fill="#664F33"/>
<path d="M41.667 20.3654L53.3367 20.9171L53.2259 23.8738C53.2259 23.8738 50.807 26.4303 48.7113 26.0211C46.6155 25.6119 44.1551 24.5083 43.1534 23.5887C42.1517 22.669 41.2192 21.7264 41.2192 21.4551C41.2192 21.1838 41.667 20.3654 41.667 20.3654Z" fill="#EAA492"/>
<path d="M37.8263 5.19599C38.551 0.813942 48.3096 -1.37018 53.9783 0.924297C54.1491 0.997868 57.5881 1.10363 57.4173 4.01426C57.4635 5.4121 53.8582 5.43509 53.7659 5.48567C53.7521 5.49027 53.7428 5.49947 53.729 5.50407C53.7013 6.14321 53.4105 6.96168 53.4105 6.96168C53.4105 6.96168 55.3354 11.569 53.7382 14.1762C51.444 11.9185 51.9979 14.613 50.9039 14.7372C49.8145 18.08 49.7452 19.4733 48.6051 20.655C47.4464 21.8551 41.0438 21.239 41.0392 21.2666C39.7282 20.9493 37.3093 17.3581 36.2937 15.4959C34.5811 12.3369 36.1968 11.9277 34.5396 9.14581C33.5379 7.46288 36.1599 4.97988 37.8217 5.20059L37.8263 5.19599Z" fill="#704821"/>
<path d="M54.3613 15.6615C53.8581 12.921 54.0382 8.42857 52.6626 6.73645C52.4964 6.52953 52.3163 6.3548 52.1271 6.19386C49.0573 5.37079 43.9103 6.01454 42.0915 6.28123C41.2883 6.72725 40.6005 7.3572 40.1435 8.27223C39.151 10.254 40.2451 14.5901 40.3189 17.3812C40.4112 20.9494 41.039 20.6919 43.9426 22.5541C44.8012 23.1013 48.8773 24.0255 49.8929 23.7175C50.9223 23.5749 51.7947 23.2714 52.5195 22.5311C54.0336 20.4068 55.0122 19.1607 54.3659 15.6615H54.3613Z" fill="#F3B49C"/>
<path d="M39.7557 11.4633C36.3213 9.40332 37.5354 14.2498 38.3709 15.3258C38.6755 15.7212 39.8619 16.2086 40.4851 16.2362L39.7603 11.4633H39.7557Z" fill="#F3B49C"/>
<path d="M44.3612 13.761C44.6114 13.7285 44.7491 13.2041 44.6687 12.5896C44.5882 11.9752 44.3201 11.5035 44.0699 11.536C43.8196 11.5685 43.6819 12.0929 43.7624 12.7074C43.8428 13.3218 44.1109 13.7936 44.3612 13.761Z" fill="url(#paint0_linear_3617_4066)"/>
<path d="M50.1317 13.2155C50.382 13.183 50.5196 12.6585 50.4392 12.0441C50.3587 11.4297 50.0906 10.9579 49.8404 10.9904C49.5901 11.023 49.4524 11.5474 49.5329 12.1618C49.6133 12.7763 49.8814 13.248 50.1317 13.2155Z" fill="url(#paint1_linear_3617_4066)"/>
<path d="M45.7754 19.0043C45.7754 19.0043 49.1267 19.8274 50.6639 18.8296" stroke="#EAA492" stroke-miterlimit="10" stroke-linecap="round"/>
<path d="M47.5151 13.7715C47.5151 13.7715 47.9675 15.1049 48.2445 15.5234C48.5215 15.9418 47.7921 15.974 47.7921 15.974" stroke="#EAA492" stroke-miterlimit="10" stroke-linecap="round"/>
<path d="M127.342 51.7388C128.555 51.5874 128.977 51.0589 128.92 50.6504C128.877 50.3352 128.545 50.0885 128.069 50.1525C129.15 50.1295 129.484 49.4314 129.254 48.8697C129.105 48.5102 128.727 48.2066 128.168 48.1682C127.064 48.091 120.114 50.6269 116.631 50.346C118.807 49.9487 121.168 49.6601 122.286 49.2674C122.957 49.0315 123.324 48.6871 123.229 47.9514C123.098 46.9868 122.486 46.6865 121.638 46.7562C118.967 46.9777 113.748 46.4256 112.205 46.7395C108.774 47.2943 104.322 49.5055 104.322 49.5055C104.322 49.5055 105.409 55.3868 107.905 56.0758C109.114 56.4101 116.155 54.7597 117.597 54.6316C118.839 54.5186 128.324 52.2668 127.351 51.7355L127.342 51.7388Z" fill="#F3B49C"/>
<path d="M119.333 53.2318C122.16 52.2752 124.989 51.3127 127.815 50.3561" stroke="#EE9575" stroke-width="1.53" stroke-linecap="round" stroke-linejoin="round"/>
<path d="M125.596 52.2427C126.269 51.9818 127.341 51.7352 127.341 51.7352" stroke="#EE9575" stroke-width="1.53" stroke-linecap="round" stroke-linejoin="round"/>
<path d="M114.309 50.7533C115.263 50.565 115.557 50.5491 116.512 50.3608" stroke="#EE9575" stroke-width="1.53" stroke-linecap="round" stroke-linejoin="round"/>
<path d="M101.817 88.3807C106.868 79.0013 109.833 53.2596 109.833 53.2596L104.261 49.5164C104.261 49.5164 84.3363 81.8153 87.5814 90.4844C89.1262 94.6039 99.4929 92.7 101.814 88.3845L101.817 88.3807Z" fill="#F3B49C"/>
<path d="M105.966 49.6831H134.901C137.081 47.9104 138.37 45.7234 138.37 43.3566C138.37 37.4429 130.34 32.6493 120.434 32.6493C110.528 32.6493 102.497 37.4429 102.497 43.3552C102.497 45.7234 103.787 47.909 105.966 49.6818V49.6831Z" fill="#F0A369"/>
<path d="M112.167 34.6781C112.864 34.7231 117.494 36.6784 118.01 37.218C118.527 37.7576 118.685 38.0274 118.685 38.0274C118.685 38.0274 118.213 36.5217 116.393 35.3975C114.572 34.2734 112.169 34.6781 112.169 34.6781H112.167Z" fill="#F5C099"/>
<path d="M116.844 34.0527C117.541 34.0977 122.171 36.053 122.687 36.5926C123.203 37.1322 123.362 37.402 123.362 37.402C123.362 37.402 122.89 35.8963 121.07 34.7722C119.249 33.648 116.846 34.0527 116.846 34.0527H116.844Z" fill="#F5C099"/>
<path d="M122.376 34.8757C123.072 34.9207 127.702 36.876 128.219 37.4156C128.735 37.9552 128.893 38.225 128.893 38.225C128.893 38.225 128.422 36.7193 126.601 35.5952C124.781 34.471 122.377 34.8757 122.377 34.8757H122.376Z" fill="#F5C099"/>
<defs>
<linearGradient id="paint0_linear_3617_4066" x1="44.3651" y1="13.7559" x2="44.063" y2="11.5369" gradientUnits="userSpaceOnUse">
<stop stop-color="#442523"/>
<stop offset="1" stop-color="#302420"/>
</linearGradient>
<linearGradient id="paint1_linear_3617_4066" x1="50.1414" y1="13.2189" x2="49.8387" y2="10.9953" gradientUnits="userSpaceOnUse">
<stop stop-color="#442523"/>
<stop offset="1" stop-color="#302420"/>
</linearGradient>
</defs>
</svg>
