<svg width="38" height="39" viewBox="0 0 38 39" fill="none" xmlns="http://www.w3.org/2000/svg">
<path d="M11.4 31.0609C9.31 31.0609 7.619 32.808 7.619 34.9435C7.619 37.0789 9.31 38.8261 11.4 38.8261C13.49 38.8261 15.2 37.0789 15.2 34.9435C15.2 32.808 13.49 31.0609 11.4 31.0609ZM0 0V3.88261H3.8L10.64 18.6171L8.075 23.3733C7.771 23.9169 7.6 24.5575 7.6 25.237C7.6 27.3724 9.31 29.1196 11.4 29.1196H34.2V25.237H12.198C11.932 25.237 11.723 25.0234 11.723 24.7516L11.78 24.5187L13.49 21.3543H27.645C29.07 21.3543 30.324 20.5584 30.97 19.3548L37.772 6.75574C37.924 6.48396 38 6.15393 38 5.82391C38 4.7562 37.145 3.88261 36.1 3.88261H7.999L6.213 0H0ZM30.4 31.0609C28.31 31.0609 26.619 32.808 26.619 34.9435C26.619 37.0789 28.31 38.8261 30.4 38.8261C32.49 38.8261 34.2 37.0789 34.2 34.9435C34.2 32.808 32.49 31.0609 30.4 31.0609Z" fill="#090909"/>
</svg>
