<?xml version="1.0" encoding="UTF-8"?>
<svg version="1.1" xmlns="http://www.w3.org/2000/svg" width="24" height="24">
<path d="M0 0 C0 0.66 0 1.32 0 2 C1.3303125 1.4121875 1.3303125 1.4121875 2.6875 0.8125 C6 -0 6 -0 8.875 1 C11 3 11 3 11.5 6.0625 C11.335 7.031875 11.17 8.00125 11 9 C10.01 9.66 9.02 10.32 8 11 C7.41651248 13.6556728 7.41651248 13.6556728 7.3125 16.625 C7.209375 18.39875 7.10625 20.1725 7 22 C1.06 22 -4.88 22 -11 22 C-11 15.4 -11 8.8 -11 2 C-4 0 -4 0 0 0 Z M-4 2 C-4.33 2.66 -4.66 3.32 -5 4 C-3.68 4 -2.36 4 -1 4 C-1 3.34 -1 2.68 -1 2 C-1.99 2 -2.98 2 -4 2 Z M-9 4 C-9 9.61 -9 15.22 -9 21 C-2.49373019 21.18229779 -2.49373019 21.18229779 4 21 C6.41121859 19.04366025 6.41121859 19.04366025 6.125 15.375 C6.08375 14.26125 6.0425 13.1475 6 12 C5.030625 11.566875 4.06125 11.13375 3.0625 10.6875 C-0 9 -0 9 -1 6 C-2.98 6 -4.96 6 -7 6 C-7 5.34 -7 4.68 -7 4 C-7.66 4 -8.32 4 -9 4 Z M7 5 C6.67 6.32 6.34 7.64 6 9 C6.99 8.67 7.98 8.34 9 8 C9 7.01 9 6.02 9 5 C8.34 5 7.68 5 7 5 Z " fill="#000000" transform="translate(12,1)"/>
<path d="M0 0 C0 0.66 0 1.32 0 2 C1.98 2 3.96 2 6 2 C6 2.66 6 3.32 6 4 C6.99 4.33 7.98 4.66 9 5 C9 6.65 9 8.3 9 10 C4.71 10 0.42 10 -4 10 C-4 7 -4 4 -4 1 C-2 0 -2 0 0 0 Z " fill="#000000" transform="translate(8,10)"/>
</svg>
