<svg width="32" height="39" viewBox="0 0 32 39" fill="none" xmlns="http://www.w3.org/2000/svg">
<path d="M17.2578 1.0174C16.5242 0.424037 15.4758 0.424038 14.7422 1.0174L0.74221 12.3417C0.27277 12.7214 0 13.2929 0 13.8967V36.8261C0 37.9307 0.895431 38.8261 2 38.8261H8C9.10457 38.8261 10 37.9307 10 36.8261V25.7271C10 24.6225 10.8954 23.7271 12 23.7271H20C21.1046 23.7271 22 24.6225 22 25.7271V36.8261C22 37.9307 22.8954 38.8261 24 38.8261H30C31.1046 38.8261 32 37.9307 32 36.8261V13.8967C32 13.2929 31.7272 12.7214 31.2578 12.3417L17.2578 1.0174Z" fill="#090909"/>
</svg>
