<svg width="40" height="40" viewBox="0 0 40 40" fill="none" xmlns="http://www.w3.org/2000/svg">
<path d="M13.1484 30.5714C15.4395 30.5714 17.2968 28.7141 17.2968 26.423C17.2968 24.132 15.4395 22.2747 13.1484 22.2747C10.8573 22.2747 9 24.132 9 26.423C9 28.7141 10.8573 30.5714 13.1484 30.5714Z" stroke="#000001" stroke-width="2.85714" stroke-linecap="round" stroke-linejoin="round"/>
<path d="M17.2969 13.1487V10.6596C17.2969 10.2195 17.122 9.79748 16.8109 9.48629C16.4997 9.1751 16.0776 9.00027 15.6375 9.00027H13.6795C13.2889 8.99317 12.9084 9.12407 12.6049 9.36993C12.3014 9.61579 12.0943 9.96084 12.0201 10.3443L9.08308 25.5938" stroke="#000001" stroke-width="2.85714" stroke-linecap="round" stroke-linejoin="round"/>
<path d="M15.6375 17.2968H23.9342" stroke="#000001" stroke-width="2.85714" stroke-linecap="round" stroke-linejoin="round"/>
<path d="M17.2969 21.4449V26.423" stroke="#000001" stroke-width="2.85714" stroke-linecap="round" stroke-linejoin="round"/>
<path d="M26.4232 30.5714C28.7143 30.5714 30.5716 28.7141 30.5716 26.423C30.5716 24.132 28.7143 22.2747 26.4232 22.2747C24.1321 22.2747 22.2748 24.132 22.2748 26.423C22.2748 28.7141 24.1321 30.5714 26.4232 30.5714Z" stroke="#000001" stroke-width="2.85714" stroke-linecap="round" stroke-linejoin="round"/>
<path d="M22.2748 13.1487V10.6596C22.2748 10.2195 22.4497 9.79748 22.7608 9.48629C23.072 9.1751 23.4941 9.00027 23.9342 9.00027H25.8922C26.2828 8.99317 26.6633 9.12407 26.9668 9.36993C27.2703 9.61579 27.4774 9.96084 27.5516 10.3443L30.5218 25.5938" stroke="#000001" stroke-width="2.85714" stroke-linecap="round" stroke-linejoin="round"/>
<path d="M22.2748 21.4449V26.423" stroke="#000001" stroke-width="2.85714" stroke-linecap="round" stroke-linejoin="round"/>
</svg>
