<svg width="40" height="40" viewBox="0 0 40 40" fill="none" xmlns="http://www.w3.org/2000/svg">
<path d="M30.5714 14.6427H9.88095C8.84213 14.6427 8 15.4848 8 16.5236V29.6903C8 30.7291 8.84213 31.5712 9.88095 31.5712H30.5714C31.6102 31.5712 32.4523 30.7291 32.4523 29.6903V16.5236C32.4523 15.4848 31.6102 14.6427 30.5714 14.6427Z" stroke="#090909" stroke-width="2.5" stroke-linecap="round" stroke-linejoin="round"/>
<path d="M15 23H25" stroke="#090909" stroke-width="2" stroke-linecap="round" stroke-linejoin="round"/>
<path d="M20 19L20 28" stroke="#090909" stroke-width="2" stroke-linecap="round" stroke-linejoin="round"/>
<path d="M25.869 14.6428C25.869 13.1463 25.2745 11.711 24.2162 10.6527C23.158 9.59451 21.7227 9 20.2262 9V9C18.7296 9 17.2943 9.59451 16.2361 10.6527C15.1778 11.711 14.5833 13.1463 14.5833 14.6428" stroke="#090909" stroke-width="2.5" stroke-linecap="round" stroke-linejoin="round"/>
</svg>
