<svg width="40" height="40" viewBox="0 0 40 40" fill="none" xmlns="http://www.w3.org/2000/svg">
<path d="M24.6265 26.3627V29.8353C24.6265 30.2958 24.4435 30.7374 24.1179 31.063C23.7923 31.3886 23.3507 31.5716 22.8902 31.5716H10.7363C10.2758 31.5716 9.83416 31.3886 9.50854 31.063C9.18293 30.7374 9 30.2958 9 29.8353V10.7363C9 10.2758 9.18293 9.83416 9.50854 9.50854C9.83416 9.18293 10.2758 9 10.7363 9H22.8902C23.3507 9 23.7923 9.18293 24.1179 9.50854C24.4435 9.83416 24.6265 10.2758 24.6265 10.7363V14.2088" stroke="#090909" stroke-width="3" stroke-linecap="round" stroke-linejoin="round"/>
<path d="M19.4176 20.2856H31.5716" stroke="#090909" stroke-width="3" stroke-linecap="round" stroke-linejoin="round"/>
<path d="M28.099 16.8131L31.5715 20.2857L28.099 23.7582" stroke="#090909" stroke-width="3" stroke-linecap="round" stroke-linejoin="round"/>
</svg>
