<svg width="40" height="40" viewBox="0 0 40 40" fill="none" xmlns="http://www.w3.org/2000/svg">
<path d="M20.6646 31.8708C20.2369 32.0358 19.7631 32.0358 19.3354 31.8708V31.8708C15.9951 30.561 13.127 28.2752 11.105 25.3114C9.08302 22.3476 8.00099 18.8432 8 15.2554V9.84615C8 9.35652 8.1945 8.88695 8.54073 8.54073C8.88695 8.1945 9.35652 8 9.84615 8H30.1538C30.6435 8 31.113 8.1945 31.4593 8.54073C31.8055 8.88695 32 9.35652 32 9.84615V15.2369C32.0027 18.8279 30.9224 22.3363 28.9002 25.3038C26.878 28.2712 24.0078 30.5599 20.6646 31.8708V31.8708Z" stroke="#090909" stroke-width="2.5" stroke-linecap="round" stroke-linejoin="round"/>
<path d="M22.7693 17.2307H17.2308C16.2112 17.2307 15.3847 18.0573 15.3847 19.0769V22.7692C15.3847 23.7888 16.2112 24.6153 17.2308 24.6153H22.7693C23.7889 24.6153 24.6154 23.7888 24.6154 22.7692V19.0769C24.6154 18.0573 23.7889 17.2307 22.7693 17.2307Z" stroke="#090909" stroke-width="2.5" stroke-linecap="round" stroke-linejoin="round"/>
<path d="M22.7691 17.2309V15.3847C22.7691 15.021 22.6975 14.6609 22.5583 14.325C22.4192 13.989 22.2152 13.6837 21.9581 13.4266C21.7009 13.1694 21.3956 12.9654 21.0597 12.8263C20.7237 12.6871 20.3636 12.6155 19.9999 12.6155C19.6363 12.6155 19.2762 12.6871 18.9402 12.8263C18.6042 12.9654 18.2989 13.1694 18.0418 13.4266C17.7846 13.6837 17.5806 13.989 17.4415 14.325C17.3023 14.6609 17.2307 15.021 17.2307 15.3847V17.2309" stroke="#090909" stroke-width="2" stroke-linecap="round" stroke-linejoin="round"/>
</svg>
