<svg width="40" height="40" viewBox="0 0 40 40" fill="none" xmlns="http://www.w3.org/2000/svg">
<path d="M20.6102 23.1078L15.6344 24.0034L16.4637 18.9613L25.9675 9.49061C26.1217 9.33515 26.3051 9.21176 26.5073 9.12756C26.7094 9.04335 26.9262 9 27.1451 9C27.3641 9 27.5809 9.04335 27.783 9.12756C27.9851 9.21176 28.1685 9.33515 28.3227 9.49061L30.0809 11.2487C30.2363 11.4029 30.3597 11.5864 30.4439 11.7885C30.5281 11.9906 30.5715 12.2074 30.5715 12.4264C30.5715 12.6453 30.5281 12.8621 30.4439 13.0642C30.3597 13.2663 30.2363 13.4498 30.0809 13.604L20.6102 23.1078Z" stroke="#090909" stroke-width="3" stroke-linecap="round" stroke-linejoin="round"/>
<path d="M28.074 23.9371V28.913C28.074 29.3528 27.8993 29.7747 27.5882 30.0858C27.2772 30.3968 26.8553 30.5716 26.4154 30.5716H10.6586C10.2187 30.5716 9.79684 30.3968 9.4858 30.0858C9.17475 29.7747 9 29.3528 9 28.913V13.1562C9 12.7163 9.17475 12.2944 9.4858 11.9834C9.79684 11.6723 10.2187 11.4976 10.6586 11.4976H15.6344" stroke="#090909" stroke-width="3" stroke-linecap="round" stroke-linejoin="round"/>
</svg>
