<svg width="40" height="40" viewBox="0 0 40 40" fill="none" xmlns="http://www.w3.org/2000/svg">
<path d="M20.2858 31.5715C26.5187 31.5715 31.5715 26.5187 31.5715 20.2858C31.5715 14.0528 26.5187 9 20.2858 9C14.0528 9 9 14.0528 9 20.2858C9 26.5187 14.0528 31.5715 20.2858 31.5715Z" stroke="#090909" stroke-width="2.5" stroke-linecap="round" stroke-linejoin="round"/>
<path d="M17.6813 17.6813C17.6813 17.1662 17.8341 16.6627 18.1202 16.2344C18.4064 15.8061 18.8132 15.4723 19.289 15.2752C19.7649 15.078 20.2886 15.0265 20.7938 15.1269C21.299 15.2274 21.7631 15.4755 22.1273 15.8397C22.4915 16.204 22.7396 16.668 22.8401 17.1732C22.9406 17.6784 22.889 18.2021 22.6919 18.678C22.4948 19.1539 22.1609 19.5606 21.7326 19.8468C21.3044 20.133 20.8008 20.2857 20.2857 20.2857V22.022" stroke="#090909" stroke-width="2" stroke-linecap="round" stroke-linejoin="round"/>
<path d="M20.2857 24.6265C20.0281 24.6265 19.7764 24.7028 19.5622 24.8459C19.3481 24.989 19.1812 25.1924 19.0826 25.4303C18.9841 25.6683 18.9583 25.9301 19.0085 26.1827C19.0588 26.4353 19.1828 26.6673 19.3649 26.8495C19.547 27.0316 19.779 27.1556 20.0316 27.2059C20.2842 27.2561 20.5461 27.2303 20.784 27.1317C21.022 27.0332 21.2253 26.8663 21.3684 26.6521C21.5115 26.438 21.5879 26.1862 21.5879 25.9287C21.5834 25.5847 21.4448 25.2561 21.2015 25.0128C20.9583 24.7696 20.6297 24.631 20.2857 24.6265Z" fill="#090909"/>
</svg>
