<svg width="40" height="40" viewBox="0 0 40 40" fill="none" xmlns="http://www.w3.org/2000/svg">
<path d="M13.9781 30.5716H10.6594C10.2193 30.5716 9.7972 30.3968 9.48601 30.0856C9.17482 29.7744 9 29.3523 9 28.9123V15.6375H30.5716V28.9123C30.5716 29.3523 30.3967 29.7744 30.0856 30.0856C29.7744 30.3968 29.3523 30.5716 28.9122 30.5716H25.5935" stroke="#090909" stroke-width="2.5" stroke-linecap="round" stroke-linejoin="round"/>
<path d="M15.6373 24.7639L19.7857 20.6155L23.9341 24.7639" stroke="#090909" stroke-width="2.5" stroke-linecap="round" stroke-linejoin="round"/>
<path d="M19.7858 20.6155V30.5716" stroke="#090909" stroke-width="2.5" stroke-linecap="round" stroke-linejoin="round"/>
<path d="M26.9044 9.82968C26.7625 9.58366 26.5598 9.37818 26.3158 9.23291C26.0717 9.08764 25.7945 9.00745 25.5105 9H14.061C13.7771 9.00745 13.4999 9.08764 13.2558 9.23291C13.0118 9.37818 12.8091 9.58366 12.6672 9.82968L9 15.6374H30.5716L26.9044 9.82968Z" stroke="#090909" stroke-width="2.5" stroke-linecap="round" stroke-linejoin="round"/>
<path d="M19.7858 9V15.6374" stroke="#090909" stroke-width="2.5" stroke-linecap="round" stroke-linejoin="round"/>
</svg>
