<?xml version="1.0" encoding="UTF-8"?>
<svg id="Layer_2" data-name="Layer 2" xmlns="http://www.w3.org/2000/svg" viewBox="0 0 370.21 60.26">
  <defs>
    <style>
      .cls-1 {
        stroke-linecap: round;
        stroke-linejoin: round;
      }

      .cls-1, .cls-2, .cls-3 {
        stroke: #090909;
        stroke-width: 3.3px;
      }

      .cls-1, .cls-3 {
        fill: none;
      }

      .cls-4 {
        fill: #8bbd8b;
      }

      .cls-4, .cls-5, .cls-6, .cls-7, .cls-8, .cls-9, .cls-10 {
        stroke-width: 0px;
      }

      .cls-2, .cls-3 {
        stroke-miterlimit: 10;
      }

      .cls-2, .cls-9 {
        fill: #f6f6f6;
      }

      .cls-5 {
        fill: #ffa573;
      }

      .cls-6 {
        fill: #000;
      }

      .cls-7 {
        fill: #c5773c;
      }

      .cls-8 {
        fill: #88d388;
      }

      .cls-10 {
        fill: #ccc;
      }
    </style>
  </defs>
  <g id="Logo">
    <g id="Logo_With_Wordmark" data-name="Logo With Wordmark">
      <g>
        <path class="cls-6" d="M89.66,50.42V16.82h4.56v29.52h15.41v4.08h-19.97Z"/>
        <path class="cls-6" d="M122.21,51c-2.37,0-4.5-.55-6.38-1.66s-3.37-2.64-4.44-4.61c-1.07-1.97-1.61-4.23-1.61-6.79,0-2.69.54-5.01,1.63-6.96,1.09-1.95,2.58-3.46,4.46-4.51,1.89-1.06,4-1.58,6.34-1.58s4.44.53,6.31,1.58c1.87,1.06,3.36,2.55,4.46,4.49,1.1,1.94,1.66,4.23,1.66,6.89s-.54,4.97-1.63,6.94c-1.09,1.97-2.57,3.5-4.44,4.58-1.87,1.09-3.99,1.63-6.36,1.63ZM122.21,47.15c2.53,0,4.5-.86,5.9-2.57,1.41-1.71,2.11-3.93,2.11-6.65,0-1.66-.35-3.19-1.06-4.58-.7-1.39-1.66-2.51-2.86-3.36-1.2-.85-2.57-1.27-4.1-1.27-2.53,0-4.5.83-5.9,2.5-1.41,1.66-2.11,3.87-2.11,6.62,0,1.66.35,3.21,1.06,4.63.7,1.42,1.66,2.56,2.86,3.41,1.2.85,2.57,1.27,4.1,1.27Z"/>
        <path class="cls-6" d="M148.48,51c-2.37,0-4.44-.55-6.22-1.66s-3.14-2.64-4.1-4.61-1.44-4.23-1.44-6.79c0-2.4.49-4.59,1.46-6.58.98-1.98,2.38-3.56,4.2-4.73,1.82-1.17,3.97-1.75,6.43-1.75,1.41,0,2.65.13,3.72.38,1.07.26,2.11.62,3.1,1.1l-1.3,3.65c-.9-.45-1.75-.78-2.57-.98-.82-.21-1.72-.31-2.71-.31-2.24,0-4.12.81-5.64,2.42-1.52,1.62-2.28,3.85-2.28,6.7,0,1.73.32,3.3.96,4.7.64,1.41,1.53,2.53,2.66,3.36,1.14.83,2.47,1.25,4.01,1.25,1.22,0,2.26-.14,3.12-.41.86-.27,1.79-.66,2.78-1.18l1.34,3.65c-.99.54-2.1.98-3.34,1.3-1.23.32-2.63.48-4.2.48Z"/>
        <path class="cls-6" d="M167.13,51c-2.08,0-3.97-.53-5.66-1.58-1.7-1.06-3.05-2.55-4.06-4.49-1.01-1.94-1.51-4.22-1.51-6.84s.5-4.74,1.51-6.72c1.01-1.98,2.4-3.56,4.18-4.73,1.78-1.17,3.82-1.75,6.12-1.75,1.44,0,2.74.25,3.91.74,1.17.5,2.18,1.11,3.05,1.85v-2.02h3.94v18.91c0,1.22.29,2.01.89,2.38.59.37,1.24.55,1.94.55l-.91,3.36c-3.07,0-4.93-1.25-5.57-3.74-.74,1.02-1.74,1.96-3,2.81-1.26.85-2.87,1.27-4.82,1.27ZM168.09,47.15c1.22,0,2.37-.3,3.46-.89,1.09-.59,2-1.34,2.74-2.23v-13.39c-.86-.61-1.82-1.1-2.86-1.46-1.04-.37-2.14-.55-3.29-.55-1.54,0-2.89.39-4.06,1.18-1.17.78-2.09,1.87-2.76,3.26s-1.01,3.02-1.01,4.87.34,3.38,1.01,4.78,1.6,2.48,2.78,3.26c1.18.78,2.51,1.18,3.98,1.18Z"/>
        <path class="cls-6" d="M191.77,51c-1.47,0-2.8-.28-3.98-.84-1.18-.56-2.12-1.46-2.81-2.71-.69-1.25-1.03-2.86-1.03-4.85V14.9h4.32v27.26c0,1.73.36,3.01,1.08,3.84.72.83,1.72,1.25,3,1.25.61,0,1.21-.07,1.8-.22.59-.14,1.1-.31,1.51-.5l1.06,3.5c-.58.26-1.29.48-2.14.67-.85.19-1.79.29-2.81.29Z"/>
        <path class="cls-6" d="M208.67,50.42V16.82h4.56v14.35h16.56v-14.35h4.56v33.6h-4.56v-15.31h-16.56v15.31h-4.56Z"/>
        <path class="cls-6" d="M249.06,51c-2.08,0-3.97-.53-5.66-1.58-1.7-1.06-3.05-2.55-4.06-4.49-1.01-1.94-1.51-4.22-1.51-6.84s.5-4.74,1.51-6.72c1.01-1.98,2.4-3.56,4.18-4.73,1.78-1.17,3.82-1.75,6.12-1.75,1.44,0,2.74.25,3.91.74,1.17.5,2.18,1.11,3.05,1.85v-2.02h3.94v18.91c0,1.22.29,2.01.89,2.38.59.37,1.24.55,1.94.55l-.91,3.36c-3.07,0-4.93-1.25-5.57-3.74-.74,1.02-1.74,1.96-3,2.81-1.26.85-2.87,1.27-4.82,1.27ZM250.02,47.15c1.22,0,2.37-.3,3.46-.89,1.09-.59,2-1.34,2.74-2.23v-13.39c-.86-.61-1.82-1.1-2.86-1.46-1.04-.37-2.14-.55-3.29-.55-1.54,0-2.89.39-4.06,1.18-1.17.78-2.09,1.87-2.76,3.26s-1.01,3.02-1.01,4.87.34,3.38,1.01,4.78,1.6,2.48,2.78,3.26c1.18.78,2.51,1.18,3.98,1.18Z"/>
        <path class="cls-6" d="M266.12,50.42v-24.96h4.18v5.42c.42-1.06.98-2.04,1.68-2.95.7-.91,1.58-1.65,2.64-2.21,1.06-.56,2.29-.84,3.7-.84.48,0,.96.02,1.44.07.48.05.88.12,1.2.22l-1.3,4.46c-.61-.26-1.33-.38-2.16-.38-1.18,0-2.31.34-3.38,1.01-1.07.67-1.95,1.71-2.64,3.12-.69,1.41-1.03,3.2-1.03,5.38v11.66h-4.32Z"/>
        <path class="cls-6" d="M292.95,50.42l-10.03-23.81,3.94-1.63,8.5,20.54,8.5-20.54,3.7,1.63-10.08,23.81h-4.51Z"/>
        <path class="cls-6" d="M318.88,51c-3.58,0-6.42-1.14-8.52-3.43-2.1-2.29-3.14-5.5-3.14-9.62,0-2.5.47-4.73,1.42-6.7.94-1.97,2.26-3.52,3.96-4.66,1.7-1.14,3.66-1.7,5.9-1.7,2.4,0,4.39.52,5.98,1.56,1.58,1.04,2.78,2.44,3.58,4.2.8,1.76,1.2,3.7,1.2,5.81,0,1.12-.05,2.21-.14,3.26h-17.47c.29,2.34,1.1,4.16,2.45,5.47,1.34,1.31,3.12,1.97,5.33,1.97,1.44,0,2.74-.15,3.89-.46,1.15-.3,2.26-.7,3.31-1.18l1.01,3.7c-1.15.51-2.45.94-3.89,1.27-1.44.34-3.06.5-4.85.5ZM311.58,36.21h13.68c0-2.43-.61-4.3-1.82-5.62-1.22-1.31-2.9-1.97-5.04-1.97-1.86,0-3.39.65-4.61,1.94-1.22,1.3-1.95,3.18-2.21,5.64Z"/>
        <path class="cls-6" d="M339.73,51c-1.89,0-3.59-.24-5.11-.72-1.52-.48-2.78-1.1-3.77-1.87l1.82-3.6c.83.7,1.88,1.29,3.14,1.75,1.26.46,2.62.7,4.06.7,1.79,0,3.14-.3,4.06-.89.91-.59,1.37-1.35,1.37-2.28,0-.67-.17-1.26-.5-1.78-.34-.51-.95-1.02-1.85-1.51-.9-.5-2.19-1.03-3.89-1.61-2.34-.8-4.09-1.75-5.26-2.86s-1.75-2.63-1.75-4.58.84-3.54,2.52-4.87c1.68-1.33,4.01-1.99,6.98-1.99,1.6,0,3.02.17,4.27.5,1.25.34,2.37.76,3.36,1.27l-1.2,3.55c-.86-.51-1.85-.93-2.95-1.25-1.1-.32-2.33-.48-3.67-.48-1.67,0-2.93.34-3.79,1.01-.86.67-1.3,1.41-1.3,2.21s.34,1.42,1.01,1.97c.67.54,1.98,1.14,3.94,1.78,3.17,1.06,5.38,2.22,6.62,3.5,1.25,1.28,1.87,2.88,1.87,4.8,0,2.24-.9,4.01-2.71,5.3-1.81,1.3-4.23,1.94-7.27,1.94Z"/>
        <path class="cls-6" d="M364.21,51c-2.4,0-4.3-.79-5.69-2.38-1.39-1.58-2.09-3.85-2.09-6.79v-11.71h-4.32v-3.74h4.42l.91-7.87h3.31v7.87h6.91v3.74h-6.91v12.05c0,1.86.39,3.15,1.18,3.89.78.74,1.72,1.1,2.81,1.1.8,0,1.56-.13,2.28-.38.72-.26,1.38-.56,1.99-.91l1.2,3.46c-.64.38-1.5.76-2.59,1.13-1.09.37-2.22.55-3.41.55Z"/>
      </g>
      <g id="Logo-2" data-name="Logo">
        <g id="Carrot">
          <path class="cls-8" d="M60.99.98c-1.16.45-3.83.97-4.86,4.57s-2.32,7.47-1.28,9.09,1.23,2.89,4.1,2.99,10.76-1.85,12.06-3.32,3.96-3.95,3.05-5.64-4.91-1.98-5.84-1.37-3.18,2.29-4.28,2.25-1.52,0-1.19-1.71.52-5.21-.1-5.97-1.67-.9-1.67-.9Z"/>
          <path class="cls-4" d="M76.85,9.29c.23-.67.02-1.4-.54-1.87-1.55-1.32-6.66-.9-9.19.4-.96.49-1.84.96-2.66,1.4.88-2.42.77-5.09-.39-7.9l-.06-.13c-.22-.54-.66-.94-1.23-1.11-1.83-.52-4.97,1.76-5.33,2.03-1.17.88-3.15,7.69-3.13,11.55,1.21,1.95,2.46,3.86,3.8,5.5,14.3,1,18.1-8,18.73-9.86ZM57.02,13.5c.07-2.48,1.53-8.13,2.21-9.26.77-.55,1.84-1.13,2.48-1.37h.01c1.59,4.33.01,7.9-4.7,10.63ZM58.24,16.4c1.84-1.46,5.88-3.92,10.14-6.12,1.56-.79,4.09-.99,5.43-.87-1.21,2.51-5.03,7.75-15.57,6.99Z"/>
          <path class="cls-5" d="M46.75,9.53s-2.62,1.11-4.53,2.73-9.11,9.68-10.94,12.28-6.9,13.27-2.83,14.42,14.12-5.59,15.38-5.73,9.99-2.13,11.41-2.88,5.42-2.35,3.98-4.92-8.23-14.83-12.47-15.9Z"/>
          <path class="cls-7" d="M54.32,13.66c0,.12,0,.24,0,.35-2.43-3.33-3.97-4.94-5.91-5.16-2.21-.26-4.2,1.43-7.27,4.18-.17.16-.33.32-.49.5-.16.18-.42.47-.77.85-12.7,13.85-17.25,21.53-14.74,24.92.2.28.46.54.78.77,2.04,1.44,6.95,1.42,21.59-5.57.72-.34,1.85-.38,3.06-.44,1.62-.07,3.45-.15,5.01-.97,3.26-1.64,5.41-2.73,5.96-4.93.54-2.15-.72-4.74-3.62-9.01h.01c.06.01.12.01.19.02-1.34-1.64-2.59-3.54-3.8-5.5ZM58.87,27.49c-.24.98-2.05,1.89-4.55,3.15h0c-1.03.54-2.48.59-3.87.64-1.44.06-2.91.13-4.14.71-16.6,7.95-18.76,5.91-18.97,5.66-.2-.26-1.33-2.62,8.07-13.99l5.77,4.31-4.29-6.07c1.23-1.44,2.62-3.02,4.17-4.72l8.19,7.47-6.44-9.38c.04-.06.11-.11.16-.16,2.35-2.12,4.1-3.6,5.11-3.49,1.3.14,3.22,2.9,6.42,7.45,2.85,4.08,4.69,7.08,4.35,8.43Z"/>
        </g>
        <g>
          <polygon class="cls-9" points="3.79 42.76 17.91 57.02 28.95 48.76 43.84 48.64 67.66 35.21 71.97 27.51 70.11 24.77 65.45 25.31 62.41 30.21 58 33.25 54.23 35.31 52.27 34.57 49.08 31.88 35.7 31.83 22.86 27.32 13.25 31.93 5.99 40.16 3.1 42.27 3.79 42.76"/>
          <polygon class="cls-10" points="6.85 40.01 3.79 42.76 17.36 56.83 21.27 53.29 6.85 40.01"/>
          <path class="cls-1" d="M2.31,42.97s10.59-10.44,13.14-12.94,7.7-3.7,11.44-1.9c3.75,1.8,5.1,3.15,7.65,3.2s11.54.25,13.54.25c5.35,0,5,8.88-.05,8.88h-11.29c-3.75,0-6.25-3.04-9.45-3.04s-3.54.14-4.36.28"/>
          <path class="cls-3" d="M1.17,41.82l16.16,16.13s6.18-5.94,7.69-7.44,2.81-1.75,3.95-1.75h14.15c1.26,0,22.37-11.63,23.47-12.73s2.32-1.55,4.8-5.82-3.78-7.44-6.35-4.43-2.77,4.64-4.19,5.45-9.56,5.73-9.56,5.73"/>
          <line class="cls-2" x1="7.13" y1="38.58" x2="21.71" y2="53.16"/>
        </g>
      </g>
    </g>
  </g>
</svg>