<svg width="40" height="40" viewBox="0 0 40 40" fill="none" xmlns="http://www.w3.org/2000/svg">
<path d="M20.11 28.7956L20 28.9101L19.879 28.7956C14.654 23.8632 11.2 20.6016 11.2 17.2943C11.2 15.0054 12.85 13.2888 15.05 13.2888C16.744 13.2888 18.394 14.4332 18.977 15.9896H21.023C21.606 14.4332 23.256 13.2888 24.95 13.2888C27.15 13.2888 28.8 15.0054 28.8 17.2943C28.8 20.6016 25.346 23.8632 20.11 28.7956ZM24.95 11C23.036 11 21.199 11.927 20 13.3804C18.801 11.927 16.964 11 15.05 11C11.662 11 9 13.758 9 17.2943C9 21.6087 12.74 25.145 18.405 30.4894L20 32L21.595 30.4894C27.26 25.145 31 21.6087 31 17.2943C31 13.758 28.338 11 24.95 11Z" fill="#E73838"/>
</svg>
