<svg width="38" height="39" viewBox="0 0 38 39" fill="none" xmlns="http://www.w3.org/2000/svg">
<path d="M27.1584 24.4189H25.442L24.8336 23.8195C26.9628 21.2889 28.2447 18.0034 28.2447 14.4294C28.2447 6.45992 21.9222 0 14.1224 0C6.32247 0 0 6.45992 0 14.4294C0 22.3988 6.32247 28.8587 14.1224 28.8587C17.6204 28.8587 20.8359 27.549 23.3127 25.3735L23.8994 25.9951V27.7488L34.7627 38.8261L38 35.5184L27.1584 24.4189ZM14.1224 24.4189C8.71241 24.4189 4.34534 19.9569 4.34534 14.4294C4.34534 8.90181 8.71241 4.4398 14.1224 4.4398C19.5323 4.4398 23.8994 8.90181 23.8994 14.4294C23.8994 19.9569 19.5323 24.4189 14.1224 24.4189Z" fill="#090909"/>
</svg>
