<svg width="388" height="78" viewBox="0 0 388 78" fill="none" xmlns="http://www.w3.org/2000/svg">
<path d="M22.6702 30.1969C37.6067 21.2865 35.0922 9.74203 34.4146 7.46926C34.1737 6.65649 33.466 6.08453 32.5927 6.00927C30.1535 5.7835 25.4407 9.72698 23.8597 12.7523C23.2574 13.8962 22.7154 14.9649 22.2185 15.9583C21.4054 12.9781 19.4631 10.4344 16.3764 8.47771L16.2258 8.3874C15.6386 8.01112 14.9309 7.92081 14.2534 8.14658C12.1002 8.89915 10.5945 13.3092 10.4289 13.821C9.87178 15.5368 12.8229 24.0409 15.5784 27.6533C10.8957 26.0578 8.27574 25.5461 6.21294 26.6749C3.86405 27.9543 3.08109 30.9796 1.96687 35.7961C1.90664 36.067 1.86147 36.3379 1.83136 36.6239C1.80125 36.9099 1.74102 37.3765 1.66573 37.9936C-1.2252 60.345 -0.382014 71.0315 4.42116 72.6119C4.81264 72.7474 5.24929 72.8227 5.71606 72.8227C8.71239 72.8227 13.5156 69.421 23.0466 52.443C23.5134 51.6152 24.5975 50.7873 25.7418 49.8993C27.2776 48.7102 29.0242 47.3707 29.9879 45.4892C32.0507 41.6361 33.4058 39.0773 32.4271 36.5336C31.4635 34.0501 28.4521 32.3794 22.6551 30.1969H22.6702ZM26.7958 14.2876C27.7745 12.4362 30.1234 10.4946 31.5237 9.68183C32.0657 12.9781 31.9453 20.7597 21.0742 27.292C21.8722 24.5828 24.1307 19.39 26.7958 14.2876ZM15.1417 11.6235C19.6889 14.7692 20.6074 19.3599 17.867 25.2902C16.2258 22.8067 13.7565 16.2593 13.636 14.6789C14.0124 13.6103 14.6599 12.3008 15.1267 11.6235H15.1417ZM27.0518 43.954C26.4194 45.2032 25.0341 46.2568 23.7091 47.2653C22.3389 48.3189 20.9386 49.4026 20.1406 50.8174C9.34478 70.0833 5.82145 69.5715 5.44503 69.4662C5.06861 69.3458 2.32824 67.8105 3.69842 50.1702L12.3411 50.411L3.93933 47.4158C4.15013 45.1581 4.42116 42.6445 4.76747 39.9051L17.9574 41.5758L5.15895 36.8196C5.15895 36.7293 5.18906 36.639 5.20412 36.5487C6.04731 32.846 6.73993 30.1819 7.80897 29.5949C9.17916 28.8423 12.9735 30.212 19.2523 32.4697C24.8685 34.5017 28.7382 36.1724 29.3404 37.7377C29.7771 38.8666 28.6328 41.0039 27.0518 43.969V43.954Z" fill="#E36B00"/>
<path d="M50.5477 20.7476C50.4445 20.7476 50.3413 20.6445 50.2382 20.4381C50.135 20.2317 50.0834 20.0254 50.0834 19.819C50.0834 19.5611 50.1092 19.3289 50.1608 19.1225C50.264 18.9162 50.4445 18.813 50.7025 18.813C50.9604 18.813 51.7343 18.813 53.024 18.813C54.3654 18.7614 55.7841 18.7356 57.2802 18.7356C58.7763 18.7356 60.1693 18.7614 61.459 18.813C62.7488 18.813 63.4968 18.813 63.7032 18.813C64.1159 18.8646 64.2965 19.1483 64.2449 19.6642C64.2449 20.1801 64.1159 20.4639 63.858 20.5155C63.6516 20.5671 63.2905 20.5929 62.7746 20.5929C62.3103 20.5929 61.7944 20.6187 61.2269 20.6702C60.711 20.6702 60.2209 20.7218 59.7566 20.825C59.2922 20.8766 58.9827 21.0056 58.8279 21.2119C58.7248 21.3151 58.6474 22.2695 58.5958 24.0752C58.5958 25.8293 58.5958 28.0476 58.5958 30.7303C58.5958 33.413 58.5958 36.3279 58.5958 39.4749C58.6474 42.6219 58.6732 45.5883 58.6732 48.3742C58.7248 51.1601 58.7763 53.5848 58.8279 55.6484C58.8795 57.712 58.9311 59.0018 58.9827 59.5177C58.9827 59.7756 59.5244 59.9562 60.6078 60.0594C61.7428 60.1625 62.9809 60.1883 64.3223 60.1367C65.6636 60.0852 66.9018 59.982 68.0368 59.8272C69.1718 59.6208 69.7908 59.3887 69.894 59.1307C69.9972 58.9244 70.1004 58.5374 70.2036 57.97C70.3067 57.3509 70.4099 56.7318 70.5131 56.1127C70.6679 55.442 70.7711 54.823 70.8227 54.2555C70.9258 53.6364 70.9774 53.1979 70.9774 52.9399C70.9774 52.7336 71.0548 52.5788 71.2096 52.4756C71.4159 52.3208 71.6223 52.2434 71.8287 52.2434C72.0866 52.2434 72.3188 52.295 72.5251 52.3982C72.7315 52.4498 72.8605 52.5788 72.9121 52.7851C72.9636 52.9915 73.0152 53.559 73.0668 54.4876C73.1184 55.3647 73.1442 56.3191 73.1442 57.3509C73.1442 58.3827 73.0926 59.3371 72.9894 60.2141C72.8863 61.0912 72.7315 61.6071 72.5251 61.7618C72.3704 61.865 71.7255 61.9424 70.5905 61.994C69.5071 62.0456 68.1916 62.0972 66.6438 62.1488C65.0961 62.2004 63.4195 62.2519 61.6138 62.3035C59.8597 62.3035 58.1831 62.3035 56.5838 62.3035C55.0361 62.3035 53.6947 62.3035 52.5597 62.3035C51.4763 62.3035 50.8315 62.3035 50.6251 62.3035C50.4187 62.3035 50.264 62.2004 50.1608 61.994C50.0576 61.7876 50.006 61.5813 50.006 61.3749C50.006 61.117 50.0576 60.8848 50.1608 60.6784C50.264 60.4721 50.4187 60.3689 50.6251 60.3689C51.141 60.3689 51.8375 60.3431 52.7145 60.2915C53.6431 60.1883 54.2106 60.0078 54.417 59.7498C54.4686 59.6466 54.5202 58.6664 54.5717 56.8092C54.6233 54.9003 54.6491 52.553 54.6491 49.7671C54.7007 46.9297 54.7265 43.8858 54.7265 40.6357C54.7265 37.3339 54.7007 34.2901 54.6491 31.5042C54.6491 28.6667 54.6233 26.2936 54.5717 24.3847C54.5202 22.4243 54.4428 21.3667 54.3396 21.2119C54.2364 21.0572 54.0042 20.954 53.6431 20.9024C53.282 20.8508 52.8951 20.825 52.4823 20.825C52.0696 20.7734 51.6827 20.7476 51.3216 20.7476C50.9604 20.7476 50.7025 20.7476 50.5477 20.7476ZM88.3051 62.4583C86.4994 62.4067 84.9517 61.8392 83.662 60.7558C82.3722 59.6724 81.3146 58.2021 80.4892 56.3449C79.6637 54.436 79.0446 52.1661 78.6319 49.535C78.2708 46.8523 78.0902 43.8858 78.0902 40.6357C78.0386 37.4371 78.2708 34.5222 78.7867 31.8911C79.3026 29.26 80.0248 27.0158 80.9535 25.1586C81.9337 23.3013 83.1203 21.8568 84.5132 20.825C85.9577 19.7932 87.5828 19.3031 89.3885 19.3547C92.4839 19.4579 94.857 21.4183 96.5079 25.236C98.1588 29.0537 99.0358 34.1095 99.139 40.4035C99.1906 43.7053 99.01 46.7233 98.5973 49.4576C98.2362 52.1919 97.6171 54.5392 96.7401 56.4996C95.863 58.4085 94.7281 59.9046 93.3351 60.988C91.9422 62.0198 90.2655 62.5099 88.3051 62.4583ZM88.2277 60.1367C89.6206 60.2399 90.7556 59.7498 91.6326 58.6664C92.5613 57.5314 93.2835 56.0353 93.7994 54.1781C94.3669 52.2692 94.7538 50.1025 94.9602 47.6777C95.1666 45.253 95.244 42.7508 95.1924 40.1713C95.1408 37.7982 94.986 35.5282 94.7281 33.3614C94.5217 31.1431 94.1606 29.1826 93.6447 27.4802C93.1803 25.7261 92.5871 24.3332 91.8648 23.3013C91.1425 22.2695 90.2913 21.7278 89.3111 21.6763C88.1245 21.6247 87.0669 22.089 86.1383 23.0692C85.2613 24.0494 84.5132 25.4165 83.8941 27.1706C83.275 28.8731 82.8107 30.9109 82.5012 33.2841C82.2432 35.6572 82.1143 38.1851 82.1143 40.8678C82.1143 43.5505 82.2174 46.0526 82.4238 48.3742C82.6817 50.6957 83.0429 52.7336 83.5072 54.4876C84.0231 56.1901 84.668 57.5572 85.4418 58.589C86.2157 59.5693 87.1443 60.0852 88.2277 60.1367ZM122.557 34.3674C122.505 34.677 122.273 34.9091 121.86 35.0639C121.499 35.1671 121.112 35.2187 120.699 35.2187C120.287 35.1671 119.9 35.0639 119.539 34.9091C119.177 34.7544 118.997 34.5222 118.997 34.2127C118.997 33.3872 118.997 32.278 118.997 30.8851C119.048 29.4406 118.997 28.0218 118.842 26.6289C118.739 25.236 118.481 24.0236 118.068 22.9918C117.655 21.9084 117.011 21.2893 116.134 21.1346C115.308 21.0314 114.56 21.3151 113.889 21.9858C113.27 22.6049 112.703 23.4819 112.187 24.6169C111.723 25.7003 111.31 26.9643 110.949 28.4088C110.639 29.8533 110.355 31.2978 110.097 32.7424C109.891 34.1869 109.711 35.5798 109.556 36.9212C109.453 38.2109 109.375 39.2685 109.324 40.094C109.169 42.5703 109.169 45.0208 109.324 47.4456C109.478 49.8187 109.736 51.9597 110.097 53.8685C110.51 55.7258 111.026 57.2735 111.645 58.5117C112.264 59.6982 113.012 60.3173 113.889 60.3689C114.973 60.4721 115.876 59.9304 116.598 58.7438C117.372 57.5056 118.017 55.9579 118.532 54.1007C119.048 52.1919 119.461 50.154 119.771 47.9873C120.08 45.7689 120.364 43.7053 120.622 41.7964C120.673 41.4869 120.906 41.2805 121.318 41.1773C121.731 41.0226 122.17 40.971 122.634 41.0226C123.098 41.0226 123.511 41.1258 123.872 41.3321C124.285 41.5385 124.491 41.8222 124.491 42.1834C124.44 44.3501 124.233 46.6717 123.872 49.148C123.511 51.6244 122.918 53.9201 122.092 56.0353C121.267 58.0989 120.158 59.8014 118.765 61.1428C117.423 62.4841 115.721 63.0774 113.657 62.9226C112.213 62.8194 110.949 62.2004 109.865 61.0654C108.782 59.9304 107.879 58.4601 107.157 56.6544C106.435 54.8487 105.893 52.7851 105.532 50.4636C105.222 48.0904 105.067 45.6399 105.067 43.112C105.067 40.5841 105.248 38.0303 105.609 35.4508C105.97 32.8713 106.486 30.4208 107.157 28.0992C108.137 24.8491 109.504 22.4759 111.258 20.9798C113.012 19.4321 114.715 18.7356 116.366 18.8904C118.275 19.0967 119.693 19.8706 120.622 21.2119C121.602 22.5017 122.247 23.9978 122.557 25.7003C122.918 27.4028 123.047 29.0794 122.943 30.7303C122.84 32.3296 122.711 33.542 122.557 34.3674ZM134.943 60.1367C135.149 60.3431 135.562 60.4979 136.181 60.6011C136.852 60.7042 137.445 60.7558 137.961 60.7558C138.116 60.7558 138.219 60.859 138.271 61.0654C138.374 61.2201 138.425 61.4265 138.425 61.6845C138.477 61.8908 138.477 62.0972 138.425 62.3035C138.374 62.4583 138.271 62.5357 138.116 62.5357C137.858 62.5357 137.136 62.5615 135.949 62.6131C134.762 62.6131 133.473 62.6131 132.08 62.6131C130.687 62.6131 129.371 62.6131 128.133 62.6131C126.947 62.5615 126.173 62.5099 125.812 62.4583C125.708 62.4067 125.631 62.3035 125.579 62.1488C125.528 61.9424 125.502 61.736 125.502 61.5297C125.502 61.3233 125.554 61.1428 125.657 60.988C125.76 60.7816 125.915 60.6784 126.121 60.6784C126.843 60.6784 127.591 60.6784 128.365 60.6784C129.191 60.6784 129.758 60.4463 130.068 59.982C130.223 59.8272 130.455 58.7954 130.764 56.8866C131.125 54.9261 131.512 52.553 131.925 49.7671C132.338 46.9812 132.75 43.9632 133.163 40.713C133.627 37.4629 134.04 34.4706 134.401 31.7363C134.762 28.9505 135.046 26.6289 135.253 24.7717C135.459 22.9144 135.536 21.96 135.485 21.9084C135.382 21.5989 135.175 21.3925 134.866 21.2893C134.556 21.1861 134.118 21.1088 133.55 21.0572C133.344 21.0056 133.189 20.9024 133.086 20.7476C133.034 20.5413 133.008 20.3349 133.008 20.1286C133.06 19.8706 133.137 19.6642 133.241 19.5095C133.344 19.3031 133.498 19.1999 133.705 19.1999C134.169 19.1999 135.072 19.1999 136.413 19.1999C137.806 19.1999 139.225 19.2257 140.67 19.2773C142.166 19.2773 143.507 19.2773 144.694 19.2773C145.88 19.2773 146.525 19.2773 146.628 19.2773C147.041 19.3289 147.247 19.6384 147.247 20.2059C147.247 20.7734 147.144 21.083 146.938 21.1346C146.525 21.1861 146.009 21.2635 145.39 21.3667C144.771 21.4699 144.41 21.6247 144.307 21.831C144.203 21.9858 144.281 23.0176 144.539 24.9264C144.797 26.8353 145.132 29.2084 145.545 32.0459C146.009 34.8318 146.525 37.8498 147.092 41.1C147.66 44.2986 148.202 47.3166 148.718 50.154C149.233 52.9399 149.698 55.2873 150.111 57.1961C150.523 59.0534 150.781 60.0336 150.884 60.1367C151.091 60.2399 151.529 60.3173 152.2 60.3689C152.922 60.3689 153.515 60.3689 153.98 60.3689C154.135 60.3689 154.264 60.4721 154.367 60.6784C154.521 60.8848 154.625 61.117 154.676 61.3749C154.728 61.5813 154.728 61.7876 154.676 61.994C154.625 62.2004 154.496 62.3035 154.289 62.3035C153.928 62.3551 153.18 62.4325 152.045 62.5357C150.962 62.5873 149.775 62.6389 148.485 62.6905C147.247 62.742 146.061 62.7936 144.926 62.8452C143.791 62.8968 143.017 62.9226 142.604 62.9226C142.449 62.9226 142.32 62.8452 142.217 62.6905C142.114 62.4841 142.062 62.2777 142.062 62.0714C142.114 61.8134 142.191 61.5813 142.295 61.3749C142.398 61.1685 142.553 61.0654 142.759 61.0654C142.965 61.0654 143.249 61.0396 143.61 60.988C144.023 60.9364 144.41 60.8848 144.771 60.8332C145.184 60.73 145.519 60.6269 145.777 60.5237C146.086 60.4205 146.267 60.3173 146.319 60.2141C146.37 60.1109 146.319 59.5177 146.164 58.4343C146.009 57.3509 145.777 55.9579 145.467 54.2555C145.209 52.553 144.9 50.6184 144.539 48.4516C144.178 46.2332 143.817 43.989 143.455 41.719C143.352 41.4095 143.12 41.2547 142.759 41.2547L137.342 41.6417C137.187 41.6417 137.058 41.6933 136.955 41.7964C136.903 41.8996 136.852 42.0028 136.8 42.106C136.542 44.3759 136.284 46.5685 136.026 48.6837C135.768 50.7989 135.536 52.7078 135.33 54.4102C135.175 56.0611 135.046 57.4283 134.943 58.5117C134.84 59.5435 134.84 60.0852 134.943 60.1367ZM140.128 23.0692C140.076 22.8112 139.973 22.6565 139.818 22.6049C139.715 22.5533 139.612 22.7081 139.509 23.0692C139.457 23.1724 139.354 23.6625 139.199 24.5395C139.096 25.4165 138.941 26.5773 138.735 28.0218C138.529 29.4148 138.296 31.0141 138.038 32.8197C137.78 34.6254 137.523 36.5342 137.265 38.5462C137.161 39.0106 137.342 39.2427 137.806 39.2427L142.295 39.0106C142.501 39.0106 142.63 38.9332 142.682 38.7784C142.785 38.6236 142.836 38.4689 142.836 38.3141C142.475 36.4053 142.14 34.5738 141.83 32.8197C141.521 31.0141 141.237 29.4148 140.979 28.0218C140.773 26.6289 140.592 25.4939 140.437 24.6169C140.283 23.7399 140.179 23.224 140.128 23.0692ZM157.33 21.6763C157.021 21.6763 156.84 21.4183 156.789 20.9024C156.737 20.3349 156.943 20.0254 157.408 19.9738C157.666 19.9738 158.44 19.9222 159.729 19.819C161.071 19.6642 162.489 19.5353 163.985 19.4321C165.482 19.3289 166.849 19.2257 168.087 19.1225C169.377 19.0194 170.15 18.9678 170.408 18.9678C170.615 18.9678 170.77 19.071 170.873 19.2773C170.976 19.4321 171.028 19.6126 171.028 19.819C171.079 20.0254 171.053 20.2317 170.95 20.4381C170.899 20.6445 170.77 20.7476 170.563 20.7476C169.635 20.8508 168.654 20.9798 167.623 21.1346C166.591 21.2893 165.894 21.5731 165.533 21.9858C165.43 22.089 165.378 22.9402 165.378 24.5395C165.43 26.1388 165.456 28.1508 165.456 30.5756C165.507 33.0003 165.585 35.6572 165.688 38.5462C165.791 41.3837 165.869 44.118 165.92 46.7491C166.023 49.3802 166.101 51.7275 166.152 53.7912C166.255 55.8548 166.333 57.2735 166.384 58.0473C166.488 58.6148 166.617 59.0276 166.771 59.2855C166.926 59.4919 167.261 59.595 167.777 59.595C168.087 59.595 168.577 59.5693 169.248 59.5177C169.918 59.4661 170.615 59.4145 171.337 59.3629C172.111 59.3113 172.833 59.2597 173.504 59.2081C174.226 59.1049 174.768 59.0276 175.129 58.976C175.696 58.8212 176.058 58.589 176.212 58.2795C176.367 57.97 176.444 57.583 176.444 57.1187C176.444 56.6028 176.419 56.0353 176.367 55.4162C176.367 54.7972 176.341 54.1265 176.29 53.4042C176.29 53.1463 176.367 52.9657 176.522 52.8625C176.677 52.7078 176.857 52.6304 177.064 52.6304C177.322 52.6304 177.554 52.682 177.76 52.7851C177.966 52.8367 178.095 52.9657 178.147 53.1721C178.147 53.4816 178.173 53.9459 178.224 54.565C178.276 55.1841 178.328 55.829 178.379 56.4996C178.431 57.1703 178.482 57.7894 178.534 58.3569C178.585 58.9244 178.611 59.3113 178.611 59.5177C178.611 60.0852 178.534 60.4721 178.379 60.6784C178.224 60.8848 178.018 61.0138 177.76 61.0654C177.554 61.117 176.96 61.1943 175.98 61.2975C175.052 61.3491 173.891 61.4265 172.498 61.5297C171.105 61.5813 169.609 61.6587 168.009 61.7618C166.462 61.865 164.991 61.9682 163.599 62.0714C162.206 62.123 161.019 62.1746 160.039 62.2261C159.059 62.2261 158.465 62.2261 158.259 62.2261C158.053 62.2261 157.872 62.123 157.717 61.9166C157.614 61.7102 157.562 61.4781 157.562 61.2201C157.562 60.9622 157.614 60.73 157.717 60.5237C157.82 60.2657 157.975 60.1367 158.182 60.1367C158.44 60.0852 158.749 60.0594 159.11 60.0594C159.523 60.0078 159.91 59.9562 160.271 59.9046C160.684 59.853 161.045 59.8014 161.354 59.7498C161.664 59.6982 161.87 59.6208 161.973 59.5177C162.025 59.4661 162.051 58.8986 162.051 57.8152C162.102 56.7318 162.128 55.3131 162.128 53.559C162.128 51.8049 162.102 49.8445 162.051 47.6777C161.999 45.4593 161.948 43.2152 161.896 40.9452C161.844 38.6236 161.793 36.3537 161.741 34.1353C161.69 31.9169 161.612 29.9307 161.509 28.1766C161.458 26.4226 161.38 25.0038 161.277 23.9204C161.225 22.7854 161.174 22.1664 161.122 22.0632C161.019 21.9084 160.787 21.8052 160.426 21.7536C160.065 21.702 159.678 21.6763 159.265 21.6763C158.852 21.6763 158.465 21.6763 158.104 21.6763C157.743 21.6763 157.485 21.6763 157.33 21.6763ZM233.596 59.8272C233.648 60.0336 233.957 60.1883 234.525 60.2915C235.092 60.3431 235.711 60.3947 236.382 60.4463C237.104 60.4463 237.775 60.4463 238.394 60.4463C239.065 60.3947 239.529 60.3689 239.787 60.3689C240.303 60.4721 240.586 60.8332 240.638 61.4523C240.69 62.0714 240.509 62.4067 240.096 62.4583C239.322 62.5099 237.852 62.5615 235.685 62.6131C233.519 62.6647 231.068 62.7163 228.334 62.7678C225.651 62.8194 222.943 62.871 220.208 62.9226C217.526 62.9226 215.256 62.9226 213.398 62.9226C213.192 62.9226 213.037 62.8194 212.934 62.6131C212.831 62.4067 212.779 62.2004 212.779 61.994C212.779 61.736 212.831 61.5039 212.934 61.2975C213.037 61.0912 213.192 60.988 213.398 60.988C213.605 60.988 213.966 60.988 214.482 60.988C214.998 60.9364 215.514 60.8848 216.029 60.8332C216.597 60.7816 217.087 60.7042 217.5 60.6011C217.964 60.4979 218.248 60.3947 218.351 60.2915C218.403 60.1883 218.428 59.6466 218.428 58.6664C218.428 57.6346 218.403 56.3965 218.351 54.9519C218.351 53.4558 218.299 51.8823 218.196 50.2314C218.145 48.529 218.093 46.9555 218.042 45.5109C217.99 44.0148 217.913 42.7766 217.809 41.7964C217.758 40.8162 217.706 40.3003 217.655 40.2487C217.551 40.1971 216.881 40.1713 215.643 40.1713C214.404 40.1713 213.037 40.1971 211.541 40.2487C210.097 40.3003 208.755 40.3777 207.517 40.4809C206.331 40.5325 205.686 40.6357 205.582 40.7904C205.531 40.842 205.479 41.3579 205.428 42.3381C205.428 43.2668 205.428 44.4275 205.428 45.8205C205.428 47.2134 205.428 48.7353 205.428 50.3862C205.428 51.9855 205.453 53.5074 205.505 54.9519C205.557 56.3449 205.608 57.5572 205.66 58.589C205.711 59.5693 205.763 60.1367 205.815 60.2915C205.866 60.3947 206.073 60.4721 206.434 60.5237C206.795 60.5753 207.182 60.6269 207.594 60.6784C208.007 60.6784 208.42 60.7042 208.833 60.7558C209.245 60.7558 209.529 60.7558 209.684 60.7558C210.045 60.859 210.226 61.1943 210.226 61.7618C210.277 62.2777 210.174 62.5615 209.916 62.6131C209.607 62.6647 208.858 62.7163 207.672 62.7678C206.485 62.8194 205.196 62.871 203.803 62.9226C202.41 62.9226 201.094 62.9226 199.856 62.9226C198.669 62.9226 197.947 62.8968 197.689 62.8452C197.276 62.742 197.096 62.4325 197.147 61.9166C197.251 61.3491 197.483 61.0654 197.844 61.0654C198.411 61.0654 199.082 61.0396 199.856 60.988C200.681 60.8848 201.223 60.6784 201.481 60.3689C201.533 60.2657 201.558 59.2597 201.558 57.3509C201.61 55.3904 201.61 52.9657 201.558 50.0767C201.507 47.1876 201.429 44.0922 201.326 40.7904C201.223 37.4371 201.12 34.3416 201.017 31.5042C200.965 28.6151 200.888 26.2162 200.785 24.3074C200.681 22.3469 200.604 21.3409 200.552 21.2893C200.346 21.083 199.908 20.9798 199.237 20.9798C198.566 20.9282 198.05 20.9024 197.689 20.9024C197.534 20.9024 197.405 20.7992 197.302 20.5929C197.199 20.3865 197.122 20.1801 197.07 19.9738C197.018 19.7158 197.018 19.4837 197.07 19.2773C197.173 19.0194 197.354 18.8904 197.612 18.8904C197.921 18.8904 198.592 18.8904 199.624 18.8904C200.707 18.8388 201.868 18.813 203.106 18.813C204.344 18.7614 205.505 18.7356 206.588 18.7356C207.672 18.7356 208.368 18.7356 208.678 18.7356C208.884 18.7356 209.013 18.8388 209.065 19.0452C209.168 19.2515 209.22 19.4837 209.22 19.7416C209.22 19.948 209.168 20.1543 209.065 20.3607C208.962 20.5671 208.833 20.6702 208.678 20.6702C207.956 20.7218 207.182 20.7734 206.356 20.825C205.531 20.825 205.015 20.954 204.809 21.2119C204.757 21.3151 204.731 21.8052 204.731 22.6823C204.731 23.5077 204.731 24.5395 204.731 25.7777C204.783 26.9642 204.834 28.254 204.886 29.6469C204.989 31.0399 205.067 32.3296 205.118 33.5162C205.221 34.7028 205.299 35.7088 205.35 36.5342C205.453 37.3597 205.531 37.7982 205.582 37.8498C205.686 37.953 206.047 38.0046 206.666 38.0046C207.285 38.0046 208.007 38.0046 208.833 38.0046C209.71 37.953 210.638 37.9014 211.619 37.8498C212.65 37.7982 213.579 37.7466 214.404 37.695C215.281 37.5918 216.004 37.5144 216.571 37.4629C217.19 37.3597 217.526 37.2565 217.577 37.1533C217.629 37.1017 217.655 36.689 217.655 35.9151C217.655 35.0897 217.655 34.1095 217.655 32.9745C217.706 31.8395 217.706 30.6272 217.655 29.3374C217.655 27.9961 217.629 26.7579 217.577 25.6229C217.577 24.4363 217.551 23.4561 217.5 22.6823C217.5 21.8568 217.474 21.3925 217.422 21.2893C217.422 21.1861 217.293 21.1088 217.035 21.0572C216.778 21.0056 216.468 20.954 216.107 20.9024C215.797 20.8508 215.462 20.825 215.101 20.825C214.74 20.825 214.456 20.825 214.25 20.825C214.095 20.825 213.966 20.7218 213.863 20.5155C213.811 20.3091 213.76 20.1028 213.708 19.8964C213.656 19.6384 213.656 19.4063 213.708 19.1999C213.76 18.9936 213.837 18.8904 213.94 18.8904C214.146 18.8388 214.766 18.813 215.797 18.813C216.829 18.813 217.938 18.813 219.125 18.813C220.311 18.813 221.421 18.813 222.452 18.813C223.484 18.813 224.103 18.813 224.31 18.813C224.464 18.813 224.593 18.9162 224.697 19.1225C224.8 19.3289 224.851 19.5611 224.851 19.819C224.851 20.077 224.8 20.3091 224.697 20.5155C224.645 20.7218 224.542 20.825 224.387 20.825C224.078 20.825 223.587 20.825 222.917 20.825C222.298 20.825 221.885 20.954 221.679 21.2119C221.575 21.3151 221.524 22.3469 221.524 24.3074C221.524 26.2678 221.524 28.6925 221.524 31.5816C221.575 34.419 221.627 37.5144 221.679 40.8678C221.782 44.1696 221.885 47.265 221.988 50.154C222.091 52.9915 222.195 55.3904 222.298 57.3509C222.401 59.3113 222.504 60.3173 222.607 60.3689C222.968 60.5753 223.458 60.73 224.078 60.8332C224.748 60.9364 225.419 60.9622 226.09 60.9106C226.812 60.859 227.457 60.7558 228.024 60.6011C228.592 60.4463 228.979 60.2141 229.185 59.9046C229.288 59.7498 229.443 59.1049 229.649 57.97C229.907 56.835 230.191 55.3904 230.501 53.6364C230.81 51.8307 231.145 49.8187 231.507 47.6003C231.868 45.3819 232.229 43.112 232.59 40.7904C233.003 38.4689 233.364 36.2247 233.673 34.0579C234.034 31.8395 234.344 29.8791 234.602 28.1766C234.86 26.4226 235.04 25.0038 235.144 23.9204C235.298 22.837 235.376 22.2695 235.376 22.218C235.221 21.96 235.015 21.8052 234.757 21.7536C234.499 21.702 233.983 21.7278 233.209 21.831C233.003 21.831 232.848 21.7536 232.745 21.5989C232.642 21.3925 232.59 21.1861 232.59 20.9798C232.59 20.7218 232.642 20.4897 232.745 20.2833C232.848 20.0254 233.003 19.8964 233.209 19.8964C233.673 19.8448 234.576 19.7674 235.918 19.6642C237.31 19.5095 238.729 19.3805 240.174 19.2773C241.67 19.1225 243.011 18.9936 244.198 18.8904C245.384 18.7872 246.055 18.7356 246.21 18.7356C246.622 18.7356 246.855 19.0194 246.906 19.5869C246.958 20.1028 246.88 20.3865 246.674 20.4381C246.261 20.5413 245.797 20.696 245.281 20.9024C244.765 21.1088 244.456 21.3151 244.352 21.5215C244.301 21.6247 244.378 22.2695 244.585 23.4561C244.791 24.5911 245.101 26.0872 245.513 27.9445C245.926 29.7501 246.39 31.8137 246.906 34.1353C247.474 36.4053 248.041 38.7268 248.609 41.1C249.176 43.4731 249.744 45.8205 250.311 48.142C250.879 50.412 251.395 52.4498 251.859 54.2555C252.375 56.0611 252.787 57.5314 253.097 58.6664C253.407 59.7498 253.613 60.3173 253.716 60.3689C253.974 60.5237 254.258 60.5753 254.567 60.5237C254.928 60.4721 255.315 60.4721 255.728 60.5237C256.089 60.6269 256.321 60.9622 256.425 61.5297C256.528 62.0456 256.399 62.3293 256.038 62.3809C255.677 62.4325 254.903 62.5099 253.716 62.6131C252.581 62.6647 251.343 62.742 250.002 62.8452C248.712 62.8968 247.474 62.9484 246.287 63C245.152 63.0516 244.404 63.0774 244.043 63.0774C243.94 63.0774 243.837 63 243.733 62.8452C243.682 62.6389 243.656 62.4325 243.656 62.2261C243.656 61.9682 243.682 61.736 243.733 61.5297C243.837 61.3233 243.966 61.2201 244.12 61.2201C244.327 61.2201 244.688 61.1943 245.204 61.1428C245.72 61.0912 246.236 61.0396 246.751 60.988C247.319 60.8848 247.809 60.7816 248.222 60.6784C248.634 60.5237 248.867 60.3947 248.918 60.2915C248.97 60.1883 248.867 59.595 248.609 58.5117C248.402 57.3767 248.067 55.9063 247.603 54.1007C247.19 52.2434 246.7 50.154 246.132 47.8325C245.616 45.5109 245.075 43.0604 244.507 40.4809C244.404 40.2229 244.249 40.094 244.043 40.094L236.769 40.8678C236.562 40.8678 236.408 40.9968 236.304 41.2547C235.995 43.7827 235.66 46.1558 235.298 48.3742C234.989 50.5926 234.679 52.5272 234.37 54.1781C234.112 55.829 233.905 57.1703 233.751 58.2021C233.596 59.1823 233.544 59.724 233.596 59.8272ZM240.096 23.0692C240.045 22.8112 239.916 22.6823 239.709 22.6823C239.555 22.6307 239.451 22.7854 239.4 23.1466C239.348 23.4045 239.065 24.8491 238.549 27.4802C238.084 30.0597 237.543 33.5162 236.924 37.8498C236.82 38.0046 236.82 38.1593 236.924 38.3141C237.078 38.4173 237.233 38.4689 237.388 38.4689L243.346 37.9272C243.708 37.824 243.888 37.6434 243.888 37.3855C242.908 33.2583 242.031 29.9307 241.257 27.4028C240.535 24.8748 240.148 23.4303 240.096 23.0692ZM256.408 21.5215C256.254 21.5215 256.099 21.4441 255.944 21.2893C255.841 21.1346 255.763 20.954 255.712 20.7476C255.712 20.4897 255.738 20.2833 255.789 20.1286C255.841 19.9222 255.97 19.7932 256.176 19.7416C258.962 19.4321 261.67 19.1483 264.302 18.8904C266.984 18.6324 269.383 18.6324 271.498 18.8904C273.665 19.1483 275.445 19.7416 276.838 20.6702C278.283 21.5989 279.134 23.095 279.392 25.1586C279.65 27.119 279.34 28.8473 278.463 30.3434C277.638 31.7879 276.58 33.0261 275.29 34.0579C275.136 34.1611 275.032 34.3159 274.981 34.5222C274.981 34.7286 275.084 34.8833 275.29 34.9865C275.858 35.3992 276.399 35.9152 276.915 36.5342C277.483 37.1533 277.973 38.0046 278.386 39.0879C278.644 39.8618 278.773 40.8936 278.773 42.1834C278.824 43.4215 278.773 44.7629 278.618 46.2074C278.463 47.6519 278.257 49.148 277.999 50.6957C277.792 52.1919 277.586 53.5848 277.38 54.8745C277.173 56.1127 276.993 57.1703 276.838 58.0473C276.683 58.8728 276.632 59.3629 276.683 59.5177C276.838 60.1367 277.663 60.6269 279.16 60.988C279.263 60.988 279.34 61.0912 279.392 61.2975C279.443 61.4523 279.443 61.6329 279.392 61.8392C279.392 62.0456 279.34 62.2261 279.237 62.3809C279.134 62.5357 279.005 62.6131 278.85 62.6131C278.644 62.6131 278.308 62.5873 277.844 62.5357C277.431 62.4841 276.941 62.4325 276.374 62.3809C275.858 62.2777 275.316 62.2004 274.749 62.1488C274.233 62.0456 273.794 61.9424 273.433 61.8392C273.175 61.7876 272.969 61.6329 272.814 61.3749C272.659 61.0654 272.582 60.5495 272.582 59.8272C272.582 59.3113 272.659 58.5632 272.814 57.583C273.02 56.5512 273.227 55.4162 273.433 54.1781C273.691 52.9399 273.923 51.6244 274.13 50.2314C274.387 48.8385 274.568 47.4714 274.671 46.13C274.826 44.7887 274.878 43.5505 274.826 42.4155C274.774 41.2289 274.62 40.2229 274.362 39.3975C273.897 38.4689 273.252 37.7466 272.427 37.2307C271.653 36.7148 270.802 36.3537 269.873 36.1473C268.996 35.9409 268.093 35.8636 267.165 35.9151C266.288 35.9151 265.488 35.9925 264.766 36.1473C264.353 36.2505 264.069 36.4053 263.915 36.6116C263.811 36.7664 263.76 37.0501 263.76 37.4629C263.76 37.824 263.786 38.6494 263.837 39.9392C263.889 41.1773 263.94 42.6477 263.992 44.3501C264.095 46.0526 264.173 47.8325 264.224 49.6897C264.327 51.547 264.405 53.2495 264.456 54.7972C264.56 56.3449 264.663 57.6604 264.766 58.7438C264.869 59.7756 264.972 60.2915 265.075 60.2915C265.23 60.3431 265.488 60.3947 265.849 60.4463C266.21 60.4979 266.597 60.5495 267.01 60.6011C267.423 60.6526 267.81 60.7042 268.171 60.7558C268.584 60.8074 268.919 60.859 269.177 60.9106C269.486 60.9622 269.641 61.2459 269.641 61.7618C269.693 62.2777 269.538 62.5357 269.177 62.5357C268.764 62.5357 267.939 62.5615 266.701 62.6131C265.514 62.6131 264.25 62.6131 262.909 62.6131C261.567 62.6131 260.329 62.6131 259.194 62.6131C258.111 62.6131 257.44 62.6131 257.182 62.6131C256.873 62.5615 256.718 62.2777 256.718 61.7618C256.769 61.2459 256.924 60.988 257.182 60.988C257.75 60.988 258.395 60.9364 259.117 60.8332C259.891 60.6784 260.355 60.4721 260.51 60.2141C260.561 60.1109 260.561 59.1049 260.51 57.1961C260.458 55.2873 260.381 52.9141 260.278 50.0767C260.174 47.2392 260.045 44.1954 259.891 40.9452C259.736 37.6434 259.581 34.5996 259.426 31.8137C259.323 28.9763 259.194 26.6031 259.039 24.6943C258.936 22.7854 258.885 21.7794 258.885 21.6763C258.781 21.4183 258.446 21.3151 257.879 21.3667C257.363 21.4183 256.873 21.4699 256.408 21.5215ZM263.296 21.6763C263.141 21.831 263.038 22.3985 262.986 23.3787C262.986 24.3074 262.986 25.365 262.986 26.5515C263.038 27.6865 263.089 28.8215 263.141 29.9565C263.244 31.0399 263.296 31.7879 263.296 32.2007C263.347 32.6134 263.476 32.9487 263.683 33.2067C263.889 33.4646 264.353 33.5936 265.075 33.5936C266.314 33.542 267.552 33.3614 268.79 33.0519C270.08 32.7424 271.24 32.278 272.272 31.659C273.304 30.9883 274.13 30.1628 274.749 29.1826C275.368 28.1508 275.626 26.9127 275.522 25.4681C275.368 23.8172 274.671 22.6565 273.433 21.9858C272.246 21.3151 270.931 20.9282 269.486 20.825C268.042 20.7218 266.701 20.7992 265.462 21.0572C264.224 21.2635 263.502 21.4699 263.296 21.6763ZM284.067 22.837C283.861 22.8886 283.706 22.8628 283.603 22.7596C283.5 22.6049 283.423 22.4501 283.371 22.2953C283.371 22.089 283.397 21.8826 283.448 21.6763C283.552 21.4699 283.681 21.3409 283.835 21.2893C284.145 21.2377 284.764 21.1346 285.693 20.9798C286.621 20.7734 287.627 20.5671 288.711 20.3607C289.794 20.1543 290.8 19.9738 291.729 19.819C292.709 19.6642 293.354 19.5611 293.663 19.5095C293.818 19.4579 293.947 19.5095 294.05 19.6642C294.205 19.7674 294.282 19.9222 294.282 20.1286C294.334 20.3349 294.334 20.5413 294.282 20.7476C294.231 20.9024 294.128 21.0056 293.973 21.0572C293.405 21.1604 292.812 21.3409 292.193 21.5989C291.574 21.8568 291.213 22.089 291.11 22.2953C291.058 22.3985 291.135 23.3529 291.342 25.1586C291.6 26.9643 291.909 29.1826 292.27 31.8137C292.683 34.4448 293.122 37.3081 293.586 40.4035C294.05 43.4473 294.489 46.3106 294.901 48.9933C295.366 51.676 295.753 53.9717 296.062 55.8806C296.372 57.7378 296.578 58.7954 296.681 59.0534C296.733 59.2597 296.862 59.3887 297.068 59.4403C297.326 59.4919 297.481 59.2597 297.533 58.7438C297.533 58.589 297.661 57.6088 297.919 55.8032C298.177 53.9459 298.461 51.676 298.771 48.9933C299.132 46.3106 299.493 43.4215 299.854 40.3261C300.267 37.1791 300.628 34.2643 300.937 31.5816C301.299 28.8473 301.557 26.5515 301.711 24.6943C301.866 22.7854 301.918 21.7278 301.866 21.5215C301.815 21.4183 301.66 21.3151 301.402 21.2119C301.144 21.0572 300.834 20.9282 300.473 20.825C300.112 20.7218 299.751 20.6445 299.39 20.5929C299.08 20.4897 298.822 20.4123 298.616 20.3607C298.203 20.2575 298.023 19.9996 298.074 19.5869C298.126 19.1225 298.332 18.8904 298.693 18.8904C299.106 18.8904 299.828 18.942 300.86 19.0452C301.892 19.0967 302.949 19.1741 304.033 19.2773C305.168 19.3805 306.225 19.4837 307.206 19.5869C308.186 19.6384 308.831 19.69 309.14 19.7416C309.501 19.8448 309.656 20.1285 309.605 20.5929C309.605 21.0572 309.398 21.2893 308.986 21.2893C308.263 21.2893 307.67 21.3151 307.206 21.3667C306.741 21.4183 306.38 21.5989 306.122 21.9084C306.071 22.0116 305.89 22.9918 305.581 24.8491C305.271 26.7063 304.91 29.0279 304.497 31.8137C304.136 34.5996 303.723 37.6176 303.259 40.8678C302.846 44.0664 302.459 47.0586 302.098 49.8445C301.789 52.6304 301.531 54.9777 301.324 56.8866C301.118 58.7954 301.041 59.8014 301.092 59.9046C301.195 60.1109 301.428 60.2915 301.789 60.4463C302.201 60.5495 302.614 60.6269 303.027 60.6784C303.388 60.73 303.594 61.0138 303.646 61.5297C303.749 61.994 303.646 62.2261 303.336 62.2261C303.027 62.2261 302.201 62.2519 300.86 62.3035C299.519 62.3551 298.074 62.4067 296.527 62.4583C295.03 62.4583 293.637 62.4841 292.348 62.5357C291.058 62.5357 290.31 62.5099 290.104 62.4583C289.846 62.3551 289.717 62.123 289.717 61.7618C289.717 61.3491 289.846 61.117 290.104 61.0654C290.516 60.9622 291.058 60.8332 291.729 60.6784C292.399 60.5237 292.786 60.2657 292.889 59.9046C292.941 59.8014 292.838 58.8212 292.58 56.9639C292.322 55.1067 291.987 52.8367 291.574 50.154C291.161 47.4198 290.697 44.4791 290.181 41.3321C289.665 38.1851 289.175 35.2703 288.711 32.5876C288.246 29.8533 287.808 27.5833 287.395 25.7777C287.034 23.9204 286.802 22.9402 286.699 22.837C286.441 22.6307 286.105 22.5533 285.693 22.6049C285.331 22.6565 284.79 22.7339 284.067 22.837ZM315.659 19.8964C315.71 19.69 316.149 19.5095 316.974 19.3547C317.851 19.1999 318.883 19.0967 320.07 19.0452C321.308 18.942 322.623 18.8904 324.016 18.8904C325.461 18.8904 326.776 18.9162 327.963 18.9678C329.201 18.9678 330.259 19.0194 331.136 19.1225C332.013 19.1741 332.503 19.2515 332.606 19.3547C332.813 19.5095 332.967 19.9996 333.07 20.825C333.174 21.5989 333.251 22.4501 333.303 23.3787C333.354 24.2558 333.38 25.107 333.38 25.9324C333.38 26.7579 333.38 27.2738 333.38 27.4802C333.277 27.9961 332.89 28.2798 332.219 28.3314C331.6 28.3314 331.239 28.1508 331.136 27.7897C331.084 27.6349 331.007 27.2222 330.904 26.5515C330.852 25.8809 330.749 25.1844 330.594 24.4621C330.491 23.7399 330.362 23.0692 330.207 22.4501C330.052 21.831 329.898 21.4957 329.743 21.4441C329.588 21.3409 328.969 21.2893 327.886 21.2893C326.802 21.2377 325.641 21.2377 324.403 21.2893C323.165 21.2893 322.03 21.3409 320.998 21.4441C320.018 21.5473 319.528 21.7021 319.528 21.9084C319.528 22.0632 319.502 22.5275 319.451 23.3013C319.451 24.0752 319.425 25.0296 319.373 26.1646C319.373 27.2996 319.373 28.512 319.373 29.8017C319.373 31.0399 319.373 32.2264 319.373 33.3614C319.373 34.4448 319.399 35.3735 319.451 36.1473C319.502 36.8696 319.554 37.2565 319.605 37.3081C319.709 37.4113 320.276 37.4886 321.308 37.5402C322.391 37.5402 323.578 37.5402 324.868 37.5402C326.157 37.4886 327.344 37.4113 328.427 37.3081C329.511 37.2049 330.13 37.0759 330.285 36.9212C330.336 36.8696 330.414 36.7148 330.517 36.4568C330.672 36.1473 330.801 35.812 330.904 35.4508C331.058 35.0897 331.187 34.7544 331.291 34.4448C331.394 34.0837 331.471 33.8 331.523 33.5936C331.574 33.4388 331.678 33.3098 331.832 33.2067C332.039 33.1035 332.245 33.0519 332.451 33.0519C332.709 33.0003 332.916 33.0261 333.07 33.1293C333.277 33.2325 333.38 33.3872 333.38 33.5936L333.767 43.7311C333.767 44.0406 333.509 44.2728 332.993 44.4275C332.477 44.5823 332.142 44.4791 331.987 44.118C331.884 43.9116 331.755 43.6021 331.6 43.1894C331.497 42.7766 331.368 42.3639 331.213 41.9512C331.058 41.4869 330.904 41.0742 330.749 40.713C330.646 40.3003 330.543 40.0166 330.439 39.8618C330.336 39.8102 329.743 39.7844 328.66 39.7844C327.576 39.7844 326.39 39.836 325.1 39.9392C323.81 39.9908 322.623 40.0682 321.54 40.1713C320.457 40.2745 319.889 40.4035 319.838 40.5583C319.786 40.6614 319.76 41.2031 319.76 42.1834C319.812 43.112 319.863 44.2986 319.915 45.7431C319.967 47.136 320.018 48.6579 320.07 50.3088C320.173 51.9597 320.276 53.5074 320.379 54.9519C320.482 56.3965 320.586 57.6346 320.689 58.6664C320.792 59.6466 320.895 60.1883 320.998 60.2915C321.153 60.4979 321.824 60.5495 323.01 60.4463C324.249 60.2915 325.564 60.0852 326.957 59.8272C328.402 59.5177 329.691 59.2339 330.826 58.976C332.013 58.6664 332.632 58.4343 332.684 58.2795C332.735 58.1247 332.787 57.712 332.838 57.0413C332.89 56.3707 332.942 55.6484 332.993 54.8745C333.045 54.0491 333.096 53.301 333.148 52.6304C333.199 51.9081 333.225 51.4438 333.225 51.2374C333.225 51.0311 333.328 50.8505 333.535 50.6957C333.793 50.541 334.051 50.4636 334.309 50.4636C334.567 50.412 334.825 50.4636 335.083 50.6184C335.34 50.7215 335.495 50.9279 335.547 51.2374C335.598 51.547 335.65 52.2176 335.702 53.2495C335.805 54.2297 335.856 55.2615 335.856 56.3449C335.908 57.4283 335.908 58.4085 335.856 59.2855C335.805 60.1625 335.702 60.6269 335.547 60.6784C335.444 60.73 334.954 60.8332 334.076 60.988C333.251 61.1428 332.219 61.3233 330.981 61.5297C329.743 61.736 328.402 61.9424 326.957 62.1488C325.513 62.3551 324.12 62.5357 322.778 62.6905C321.488 62.7936 320.328 62.8452 319.296 62.8452C318.316 62.8452 317.671 62.742 317.361 62.5357C317.155 62.3809 316.949 61.6845 316.742 60.4463C316.587 59.1565 316.433 57.5314 316.278 55.571C316.175 53.559 316.072 51.3148 315.968 48.8385C315.865 46.3622 315.762 43.8342 315.659 41.2547C315.607 38.6752 315.556 36.1473 315.504 33.671C315.504 31.1431 315.504 28.8989 315.504 26.9385C315.504 24.978 315.504 23.3529 315.504 22.0632C315.556 20.7734 315.607 20.0512 315.659 19.8964ZM355.295 29.6469C355.243 28.9763 355.191 28.2024 355.14 27.3254C355.088 26.4483 354.933 25.5971 354.675 24.7717C354.469 23.9462 354.108 23.224 353.592 22.6049C353.076 21.9858 352.328 21.5989 351.348 21.4441C350.007 21.2377 348.897 21.7021 348.02 22.837C347.143 23.9204 346.885 25.5197 347.247 27.6349C347.453 28.9763 347.917 30.2402 348.639 31.4268C349.362 32.5618 350.187 33.7484 351.116 34.9865C352.044 36.1731 353.025 37.3855 354.056 38.6236C355.14 39.8618 356.12 41.2289 356.997 42.7251C357.926 44.1696 358.674 45.7689 359.241 47.5229C359.86 49.2254 360.196 51.1343 360.247 53.2495C360.299 56.1901 359.448 58.4601 357.694 60.0594C355.991 61.6587 353.902 62.4841 351.425 62.5357C349.774 62.5873 348.433 62.2519 347.401 61.5297C346.369 60.7558 345.518 59.8014 344.848 58.6664C344.228 57.4798 343.79 56.1901 343.532 54.7972C343.274 53.3526 343.094 51.9597 342.99 50.6184C342.939 49.277 342.939 48.0646 342.99 46.9812C343.094 45.8979 343.197 45.124 343.3 44.6597C343.351 44.4017 343.532 44.2212 343.842 44.118C344.151 44.0148 344.486 43.989 344.848 44.0406C345.26 44.0406 345.621 44.118 345.931 44.2728C346.241 44.4275 346.395 44.6339 346.395 44.8918C346.602 46.6975 346.782 48.529 346.937 50.3862C347.092 52.1919 347.324 53.8427 347.633 55.3389C347.995 56.7834 348.485 57.97 349.104 58.8986C349.723 59.8272 350.6 60.2915 351.735 60.2915C352.56 60.2915 353.257 60.1109 353.824 59.7498C354.443 59.3371 354.933 58.7954 355.295 58.1247C355.707 57.4541 355.965 56.706 356.068 55.8806C356.223 55.0551 356.249 54.2039 356.146 53.3268C355.939 51.4696 355.475 49.7929 354.753 48.2968C354.082 46.8007 353.283 45.4077 352.354 44.118C351.425 42.7766 350.445 41.4869 349.413 40.2487C348.433 39.0106 347.479 37.7466 346.55 36.4568C345.673 35.1671 344.925 33.8257 344.306 32.4328C343.687 30.9883 343.326 29.389 343.222 27.6349C343.119 26.242 343.3 24.978 343.764 23.843C344.28 22.7081 344.925 21.7794 345.699 21.0572C346.524 20.3349 347.427 19.7932 348.407 19.4321C349.439 19.071 350.445 18.9678 351.425 19.1225C352.87 19.2773 354.082 19.7416 355.062 20.5155C356.043 21.2893 356.816 22.218 357.384 23.3013C357.951 24.3332 358.313 25.4681 358.467 26.7063C358.622 27.8929 358.596 29.0021 358.39 30.0339C358.338 30.2918 358.132 30.4724 357.771 30.5756C357.461 30.6787 357.126 30.7303 356.765 30.7303C356.404 30.6787 356.068 30.5756 355.759 30.4208C355.449 30.2144 355.295 29.9565 355.295 29.6469ZM365.818 26.6289C365.767 26.8353 365.612 26.99 365.354 27.0932C365.148 27.1964 364.916 27.2738 364.658 27.3254C364.451 27.3254 364.245 27.2996 364.039 27.248C363.832 27.1448 363.729 27.0158 363.729 26.8611C363.729 26.4999 363.703 25.984 363.652 25.3134C363.652 24.5911 363.652 23.8688 363.652 23.1466C363.652 22.4243 363.677 21.7278 363.729 21.0572C363.781 20.3865 363.884 19.9222 364.039 19.6642C364.09 19.5095 364.632 19.3805 365.664 19.2773C366.695 19.1741 367.934 19.0967 369.378 19.0452C370.874 18.9936 372.474 18.9678 374.176 18.9678C375.878 18.9162 377.478 18.9162 378.974 18.9678C380.47 18.9678 381.734 18.9936 382.766 19.0452C383.798 19.0967 384.365 19.1483 384.468 19.1999C384.623 19.3031 384.726 19.7158 384.778 20.4381C384.881 21.1604 384.958 21.96 385.01 22.837C385.062 23.6625 385.087 24.4621 385.087 25.236C385.139 25.9582 385.165 26.3968 385.165 26.5515C385.165 26.8095 384.855 26.9643 384.236 27.0158C383.669 27.0674 383.282 26.8353 383.075 26.3194C382.972 26.113 382.869 25.7261 382.766 25.1586C382.663 24.5911 382.534 24.0236 382.379 23.4561C382.224 22.837 382.069 22.2953 381.915 21.831C381.76 21.3667 381.605 21.1346 381.45 21.1346C381.295 21.083 380.934 21.0572 380.367 21.0572C379.851 21.0056 379.283 20.9798 378.664 20.9798C378.045 20.9798 377.478 21.0314 376.962 21.1346C376.446 21.2377 376.162 21.3667 376.111 21.5215C376.111 21.6247 376.085 22.6565 376.033 24.6169C376.033 26.5257 376.033 28.8989 376.033 31.7363C376.033 34.5738 376.033 37.6434 376.033 40.9452C376.033 44.1954 376.033 47.2392 376.033 50.0767C376.033 52.9141 376.059 55.2873 376.111 57.1961C376.162 59.1049 376.214 60.1109 376.265 60.2141C376.369 60.3689 376.627 60.4979 377.039 60.6011C377.452 60.6526 377.916 60.73 378.432 60.8332C378.948 60.8848 379.438 60.9364 379.903 60.988C380.418 60.988 380.805 60.988 381.063 60.988C381.424 60.988 381.605 61.2717 381.605 61.8392C381.657 62.3551 381.502 62.6131 381.141 62.6131C380.883 62.6131 380.109 62.6131 378.819 62.6131C377.581 62.6131 376.214 62.6131 374.718 62.6131C373.273 62.6131 371.906 62.6131 370.616 62.6131C369.378 62.6131 368.63 62.6131 368.372 62.6131C368.114 62.5615 367.985 62.3293 367.985 61.9166C368.037 61.4523 368.217 61.1685 368.527 61.0654C368.682 61.0138 368.914 60.988 369.223 60.988C369.584 60.9364 369.946 60.8848 370.307 60.8332C370.668 60.73 370.977 60.6526 371.235 60.6011C371.545 60.4979 371.725 60.3947 371.777 60.2915C371.829 60.2399 371.854 59.6466 371.854 58.5117C371.906 57.3767 371.932 55.9063 371.932 54.1007C371.983 52.295 372.009 50.2572 372.009 47.9873C372.009 45.6657 372.009 43.3183 372.009 40.9452C372.061 38.5205 372.061 36.1731 372.009 33.9031C372.009 31.5816 372.009 29.518 372.009 27.7123C372.009 25.9067 371.983 24.4363 371.932 23.3013C371.88 22.1664 371.829 21.5731 371.777 21.5215C371.674 21.4183 371.39 21.3409 370.926 21.2893C370.462 21.1861 369.971 21.1346 369.456 21.1346C368.94 21.083 368.449 21.083 367.985 21.1346C367.521 21.1861 367.211 21.2893 367.057 21.4441C366.953 21.5473 366.824 21.8568 366.67 22.3727C366.566 22.837 366.463 23.3529 366.36 23.9204C366.257 24.4879 366.154 25.0296 366.051 25.5455C365.947 26.0614 365.87 26.4226 365.818 26.6289Z" fill="#090909"/>
</svg>
